<svg width="42" height="42" viewBox="0 0 42 42" fill="none" xmlns="http://www.w3.org/2000/svg">
<path d="M3.23877 7.22986C3.36668 7.36249 3.40079 7.41555 3.30699 7.34481C3.21319 7.28292 3.86128 7.99027 4.75667 8.92752L6.36838 10.6163L10.4701 10.6252H14.5634L16.3115 8.81258L18.0596 6.99997H10.5298H3L3.23877 7.22986ZM4.96986 8.98942C5.78851 9.83825 6.44513 10.5368 6.41955 10.5368C6.39396 10.5368 5.70323 9.83825 4.88459 8.98942C4.06594 8.14059 3.40932 7.44207 3.4349 7.44207C3.46049 7.44207 4.15122 8.14059 4.96986 8.98942Z" fill="#01010A"/>
<path d="M19.1833 10.5991L15.7126 14.2066L15.6956 17.4782L15.67 20.7497L15.6273 17.4339C15.6018 15.586 15.5762 18.1413 15.5762 23.2254V32.3327L17.3499 34.1453L19.1236 35.949V25.878V15.7982L21.6222 13.2163L24.1122 10.6256H29.8683L35.633 10.6168L37.202 8.96333L38.7796 7.30988L37.185 8.94565C36.2981 9.84753 35.5818 10.5637 35.5818 10.5372C35.5818 10.5107 36.3322 9.7149 37.2532 8.76881C38.1742 7.82271 38.9075 7.09767 38.8734 7.15072C38.7882 7.30988 38.8649 7.2922 38.9928 7.13304C39.0866 7.01809 38.1742 7.00041 30.8746 7.00041H22.654L19.1833 10.5991ZM15.687 31.643C15.67 31.7845 15.6529 31.6695 15.6529 31.4043C15.6529 31.139 15.67 31.0241 15.687 31.1567C15.7041 31.2982 15.7041 31.5104 15.687 31.643Z" fill="#2563EB"/>
<path d="M23.9612 15.7364L22.793 16.9478V26.4529V35.958L24.5411 34.1454L26.2893 32.3328L26.2978 25.2769C26.2978 21.3599 26.3404 18.2122 26.3745 18.1856C26.4172 18.1591 27.0226 18.1326 27.7134 18.1326H28.984L30.7236 16.3288L32.4717 14.5162H28.8049H25.138L23.9612 15.7364Z" fill="#01010A"/>
</svg>
