<svg width="143" height="142" viewBox="0 0 143 142" fill="none" xmlns="http://www.w3.org/2000/svg">
<path d="M57.8654 10.335H53.0405C53.0405 10.335 51.3473 22.5221 46.7513 27.6512C42.3967 32.5126 34.2452 31.1771 34.2452 31.1771L34.2375 31.202C31.0848 30.343 27.4867 30.5315 25.0378 31.1787C21.1944 32.1929 18.4188 33.9582 18.4188 33.9582C18.4188 33.9582 12.4882 37.706 12.6294 44.858C12.7381 50.4077 16.9026 57.0142 16.87 57.4875C16.5038 62.7842 16.0941 62.6034 16.6473 64.4905C17.989 69.0686 36.9914 67.1823 37.3297 65.0826C37.6362 63.1776 36.7531 59.9923 37.1962 55.709C37.8946 48.9582 39.2835 46.5527 40.8634 42.3874C49.589 41.6797 55.2279 36.7493 56.9823 28.8322C58.7926 20.6637 57.8654 10.335 57.8654 10.335Z" fill="white"/>
<path d="M25.9623 67.4879C21.4198 67.4879 17.1234 66.7236 16.4832 64.5393C16.1185 63.2978 16.1643 62.8951 16.3358 61.4029C16.4336 60.5493 16.5686 59.3722 16.6997 57.4766C16.6873 57.3757 16.4142 56.831 16.1247 56.2544C14.9608 53.9366 12.5414 49.1156 12.4576 44.8626C12.3163 37.6959 18.2679 33.851 18.3277 33.813C18.3548 33.7951 21.17 32.0221 24.9955 31.0126C27.2349 30.4213 30.8151 30.1148 34.196 31.0126C34.2211 31.0049 34.2476 31.003 34.2736 31.0071C34.3512 31.0203 42.3839 32.2681 46.6237 27.5363C51.1328 22.505 52.8538 10.4327 52.8709 10.3101C52.8765 10.2688 52.8969 10.2309 52.9283 10.2035C52.9597 10.1762 53 10.1611 53.0416 10.1611H57.8665C57.9093 10.1611 57.9505 10.1769 57.9822 10.2056C58.0139 10.2343 58.0338 10.2737 58.038 10.3163C58.0473 10.4195 58.9474 20.7653 57.1519 28.8663C55.3594 36.9548 49.6204 41.81 40.9871 42.5472C40.7241 43.237 40.4665 43.8795 40.2174 44.501C38.9976 47.5451 37.9431 50.174 37.3688 55.7237C37.119 58.1392 37.2913 60.2188 37.4364 61.8902C37.5481 63.2155 37.6366 64.2623 37.5008 65.1065C37.2936 66.3946 32.1397 67.1814 28.7255 67.3964C27.8137 67.4569 26.8826 67.4879 25.9623 67.4879ZM29.6644 30.8C27.8797 30.8 26.2502 31.0382 25.0862 31.3431C21.3151 32.3387 18.5426 34.0846 18.5154 34.1016C18.4565 34.1389 12.6686 37.8852 12.806 44.8533C12.8882 49.0256 15.2844 53.8024 16.4359 56.0977C16.9084 57.0389 17.0566 57.3439 17.0466 57.4944C16.9146 59.3986 16.7796 60.5765 16.6811 61.4363C16.5127 62.9106 16.4723 63.2605 16.8169 64.4369C17.53 66.8726 23.6678 67.3669 28.7069 67.0503C33.6225 66.7399 37.0484 65.7669 37.1648 65.0499C37.2944 64.2475 37.2028 63.1682 37.0973 61.9181C36.9545 60.232 36.7776 58.1338 37.0305 55.6864C37.6102 50.0887 38.6725 47.4396 39.9016 44.3714C40.1631 43.7204 40.4331 43.0476 40.7078 42.3221C40.7193 42.2916 40.7393 42.2649 40.7654 42.2452C40.7915 42.2256 40.8227 42.2138 40.8552 42.2112C49.3853 41.519 55.0552 36.7523 56.8197 28.7871C58.4826 21.2844 57.8176 11.8294 57.7121 10.5002H53.1953C52.9811 11.9124 51.1886 22.9574 46.8852 27.759C42.7649 32.3565 35.2218 31.4781 34.3147 31.3532C34.2788 31.3693 34.2385 31.3723 34.2006 31.3617C32.6914 30.9606 31.1247 30.8 29.6644 30.8Z" fill="#1E293B"/>
<path d="M118.018 133.57H33.7907C31.175 133.57 29.1823 131.176 29.6006 128.537L47.7153 14.3228C48.0481 12.2223 49.8228 10.6758 51.9054 10.6758H136.132C138.747 10.6758 140.741 13.0696 140.322 15.7079L122.208 129.926C121.875 132.026 120.1 133.57 118.018 133.57Z" fill="white"/>
<path d="M118.019 133.742H33.792C33.1583 133.741 32.5324 133.602 31.9577 133.335C31.3829 133.068 30.873 132.68 30.4631 132.197C30.0345 131.693 29.7203 131.103 29.5421 130.467C29.3639 129.83 29.326 129.163 29.4311 128.51L47.5458 14.2954C47.8942 12.0994 49.7278 10.5064 51.9059 10.5064H136.133C136.767 10.5077 137.393 10.6465 137.967 10.9134C138.542 11.1803 139.052 11.5688 139.462 12.0521C139.891 12.5553 140.205 13.1454 140.383 13.7817C140.561 14.4181 140.599 15.0855 140.494 15.7379L122.379 129.952C122.031 132.145 120.197 133.742 118.019 133.742ZM51.9075 10.8509C49.9001 10.8509 48.2093 12.3253 47.888 14.3497L29.7718 128.564C29.6745 129.168 29.7094 129.785 29.8741 130.373C30.0387 130.961 30.3292 131.507 30.7254 131.972C31.1031 132.417 31.5728 132.775 32.1023 133.021C32.6317 133.267 33.2082 133.395 33.792 133.397H118.019C120.026 133.397 121.717 131.923 122.038 129.899L140.153 15.6836C140.25 15.0802 140.215 14.463 140.049 13.8746C139.884 13.2862 139.594 12.7406 139.197 12.2756C138.819 11.8303 138.349 11.4723 137.82 11.2264C137.29 10.9804 136.714 10.8523 136.13 10.8509H51.9075Z" fill="#1E293B"/>
<path d="M115.341 133.273H31.113C28.498 133.273 26.5046 130.883 26.9228 128.249L45.0375 14.2324C45.3704 12.1373 47.1458 10.5947 49.2277 10.5947H133.453C136.069 10.5947 138.061 12.9847 137.643 15.6183L119.53 129.635C119.197 131.732 117.423 133.273 115.341 133.273Z" fill="white"/>
<path d="M115.341 133.446H31.1135C30.4793 133.445 29.853 133.305 29.2778 133.038C28.7027 132.771 28.1924 132.382 27.7823 131.899C27.3548 131.397 27.0414 130.808 26.8637 130.173C26.6861 129.539 26.6484 128.873 26.7534 128.222L44.8681 14.2054C45.2165 12.0133 47.0501 10.4226 49.2282 10.4226H133.454C134.089 10.423 134.716 10.5615 135.292 10.8285C135.868 11.0956 136.379 11.4847 136.79 11.9691C137.218 12.4708 137.531 13.0594 137.709 13.6942C137.886 14.329 137.924 14.9948 137.819 15.6456L119.701 129.662C119.353 131.854 117.519 133.446 115.341 133.446ZM49.2298 10.7671C47.2224 10.7671 45.5315 12.236 45.2103 14.2589L27.094 128.276C26.997 128.878 27.0317 129.493 27.1958 130.08C27.3599 130.667 27.6495 131.211 28.0446 131.675C28.4224 132.121 28.8925 132.479 29.4224 132.725C29.9523 132.971 30.5293 133.099 31.1135 133.1H115.341C117.349 133.1 119.039 131.632 119.361 129.609L137.475 15.5912C137.572 14.9897 137.538 14.3743 137.373 13.7875C137.209 13.2007 136.92 12.6565 136.525 12.1926C136.147 11.7467 135.676 11.3882 135.146 11.1421C134.616 10.896 134.038 10.768 133.454 10.7671H49.2298Z" fill="#1E293B"/>
<path d="M101.568 21.1836H77.1524C73.2502 21.1836 70.2852 17.6088 70.9355 13.6879L71.5058 10.2519C71.5322 10.085 71.6167 9.93271 71.7445 9.82208C71.8723 9.71146 72.0352 9.64961 72.2042 9.64746H109.811C109.915 9.64914 110.018 9.67341 110.112 9.71861C110.206 9.76381 110.289 9.82885 110.355 9.90926C110.422 9.98967 110.47 10.0835 110.496 10.1843C110.523 10.2852 110.527 10.3906 110.509 10.4933L109.94 13.9757C109.248 18.1372 105.71 21.1836 101.568 21.1836Z" fill="white"/>
<path d="M101.569 21.356H77.1538C76.2196 21.3546 75.297 21.1494 74.4502 20.7547C73.6035 20.36 72.8531 19.7854 72.2513 19.0708C71.6248 18.3308 71.1673 17.463 70.9109 16.5279C70.6545 15.5928 70.6054 14.613 70.7669 13.657L71.3372 10.2202C71.3699 10.0123 71.4755 9.82287 71.6352 9.68579C71.7949 9.54871 71.9982 9.473 72.2086 9.47223H109.815C109.943 9.47212 110.069 9.49983 110.185 9.55344C110.301 9.60704 110.403 9.68525 110.486 9.78261C110.571 9.88301 110.633 10.0007 110.667 10.1274C110.702 10.2542 110.709 10.387 110.688 10.5167L110.109 13.9992C109.403 18.2638 105.811 21.356 101.569 21.356ZM72.2086 9.81986C72.0799 9.8211 71.9557 9.86806 71.8584 9.95234C71.761 10.0366 71.6968 10.1527 71.6771 10.28L71.1068 13.7167C70.9543 14.6229 71.0012 15.5515 71.2443 16.4377C71.4874 17.324 71.9208 18.1465 72.5144 18.8481C73.0838 19.5244 73.7939 20.0684 74.5952 20.442C75.3965 20.8157 76.2697 21.01 77.1538 21.0115H101.569C105.641 21.0115 109.09 18.0403 109.77 13.9503L110.347 10.4686C110.36 10.3882 110.356 10.3058 110.335 10.2271C110.314 10.1485 110.275 10.0754 110.223 10.0131C110.173 9.95375 110.11 9.90602 110.04 9.87319C109.97 9.84036 109.893 9.82322 109.815 9.82296L72.2086 9.81986Z" fill="#1E293B"/>
<path d="M85.1337 17.1694H95.5602C95.7505 17.1746 95.9362 17.1104 96.0827 16.9888C96.2292 16.8671 96.3264 16.6964 96.3563 16.5083L97.7848 7.21624C98.3575 3.51881 95.5648 0.169006 91.9054 0.169006C88.9785 0.169006 86.4861 2.33703 86.0268 5.29032L84.3352 16.2468C84.3158 16.3618 84.3221 16.4796 84.3536 16.5918C84.3851 16.7041 84.4409 16.808 84.5172 16.8961C84.5935 16.9842 84.6883 17.0544 84.7949 17.1017C84.9014 17.149 85.0171 17.1721 85.1337 17.1694ZM89.4014 5.89634L89.413 5.8265C89.5014 5.25215 89.7913 4.72797 90.2307 4.34769C90.6701 3.96742 91.2304 3.75585 91.8115 3.75082C93.3153 3.75082 94.4591 5.13358 94.2092 6.65135L94.1984 6.7204C94.1099 7.29477 93.82 7.81896 93.3807 8.19933C92.9413 8.57971 92.381 8.7915 91.7999 8.79686C90.2938 8.79686 89.15 7.41411 89.3991 5.89712L89.4014 5.89634Z" fill="white"/>
<path d="M95.5599 17.3418H85.1333C84.9909 17.3428 84.85 17.3129 84.7203 17.2541C84.5906 17.1953 84.4753 17.109 84.3822 17.0012C84.292 16.8943 84.226 16.769 84.1889 16.6341C84.1518 16.4992 84.1444 16.3579 84.1673 16.2198L85.8558 5.27107C86.3306 2.21691 88.875 0 91.9082 0C92.7844 0.00225367 93.6498 0.194223 94.4448 0.562713C95.2397 0.931202 95.9455 1.46747 96.5135 2.13466C97.1091 2.83173 97.5467 3.64959 97.7959 4.53194C98.0452 5.41429 98.1004 6.34018 97.9576 7.24588L96.529 16.5349C96.4936 16.7644 96.3755 16.973 96.1971 17.1216C96.0186 17.2702 95.792 17.3485 95.5599 17.3418ZM91.9051 0.348404C89.0457 0.348404 86.6449 2.44349 86.1972 5.32771L84.5079 16.2765C84.4922 16.3654 84.4963 16.4567 84.5199 16.5439C84.5435 16.6311 84.5861 16.712 84.6445 16.7808C84.7052 16.8506 84.7804 16.9064 84.8648 16.9443C84.9492 16.9822 85.0408 17.0014 85.1333 17.0004H95.5599C95.7089 17.0052 95.8546 16.9555 95.9697 16.8607C96.0848 16.7659 96.1614 16.6324 96.1853 16.4852L97.6138 7.19699C97.7488 6.34051 97.6966 5.46495 97.4609 4.63056C97.2251 3.79616 96.8114 3.02276 96.2481 2.36356C95.7131 1.73322 95.0478 1.22633 94.298 0.877779C93.5483 0.529228 92.7319 0.347302 91.9051 0.344525V0.348404ZM91.7973 8.97316C91.4223 8.9724 91.052 8.88995 90.7122 8.73155C90.3724 8.57316 90.0711 8.34262 89.8294 8.05598C89.5767 7.7575 89.3921 7.40754 89.2883 7.03044C89.1846 6.65334 89.1643 6.25817 89.2288 5.87244L89.2397 5.8026C89.3335 5.18729 89.6438 4.62565 90.1148 4.2187C90.5858 3.81175 91.1865 3.58619 91.8089 3.58259C92.1836 3.58347 92.5537 3.6659 92.8934 3.82415C93.233 3.98239 93.5342 4.21267 93.7759 4.49899C94.0288 4.79758 94.2135 5.14765 94.3174 5.52487C94.4212 5.90208 94.4417 6.29739 94.3773 6.68331L94.3657 6.75237C94.2713 7.36705 93.9609 7.92794 93.4901 8.33428C93.0194 8.74061 92.4191 8.96576 91.7973 8.96928V8.97316ZM89.5687 5.9283C89.5124 6.2647 89.5301 6.60932 89.6206 6.93817C89.711 7.26702 89.8721 7.57222 90.0925 7.8325C90.302 8.08133 90.5633 8.28141 90.8582 8.41879C91.153 8.55616 91.4743 8.62751 91.7996 8.62786C92.3402 8.6241 92.8617 8.42749 93.2703 8.07343C93.6788 7.71936 93.9476 7.23109 94.0281 6.6965L94.039 6.62744C94.0952 6.29093 94.0775 5.9462 93.9871 5.61723C93.8966 5.28825 93.7356 4.98293 93.5152 4.72247C93.3056 4.47376 93.0443 4.27376 92.7494 4.1364C92.4546 3.99904 92.1334 3.92761 91.8081 3.92711C91.2675 3.93087 90.746 4.12748 90.3374 4.48154C89.9289 4.83561 89.6601 5.32388 89.5796 5.85847L89.5687 5.9283Z" fill="#1E293B"/>
<path d="M93.0908 89.8706H89.5595C89.3361 89.8703 89.1155 89.8215 88.9129 89.7278C88.7102 89.634 88.5302 89.4974 88.3854 89.3274C88.2357 89.1516 88.1258 88.9454 88.0634 88.723C88.001 88.5006 87.9875 88.2674 88.0238 88.0393L95.3233 41.814C95.3774 41.4451 95.5621 41.1078 95.844 40.8635C96.1258 40.6193 96.4859 40.4844 96.8589 40.4833H100.392C100.615 40.4836 100.836 40.5323 101.038 40.6261C101.241 40.7198 101.421 40.8564 101.566 41.0264C101.716 41.2023 101.826 41.4084 101.888 41.6308C101.95 41.8532 101.964 42.0865 101.927 42.3145L94.6265 88.5367C94.573 88.9062 94.3885 89.2443 94.1066 89.4891C93.8248 89.734 93.4642 89.8694 93.0908 89.8706ZM95.6639 41.8668L88.3645 88.0921C88.3361 88.2707 88.3466 88.4534 88.3955 88.6275C88.4444 88.8016 88.5305 88.9631 88.6477 89.1008C88.76 89.2331 88.8997 89.3395 89.0571 89.4125C89.2145 89.4855 89.3859 89.5235 89.5595 89.5237H93.0908C93.3814 89.5223 93.6618 89.4166 93.8811 89.226C94.1004 89.0353 94.244 88.7723 94.2858 88.4847L101.587 42.2594C101.615 42.0808 101.605 41.8982 101.556 41.724C101.507 41.5499 101.421 41.3884 101.304 41.2507C101.191 41.1185 101.052 41.0122 100.894 40.9392C100.737 40.8662 100.565 40.8282 100.392 40.8278H96.8589C96.5683 40.8292 96.2879 40.9349 96.0686 41.1256C95.8493 41.3162 95.7057 41.5792 95.6639 41.8668Z" fill="#1E293B"/>
<path d="M82.8053 89.8705H79.2724C79.0493 89.87 78.8291 89.8211 78.6267 89.7274C78.4243 89.6336 78.2446 89.4972 78.0999 89.3274C77.9502 89.1523 77.8401 88.9468 77.7773 88.7252C77.7144 88.5035 77.7004 88.2708 77.736 88.0432L83.0342 53.6838C83.0868 53.3135 83.2711 52.9745 83.5532 52.729C83.8354 52.4835 84.1966 52.3478 84.5706 52.3469H88.1051C88.328 52.3473 88.5482 52.3962 88.7505 52.4899C88.9528 52.5837 89.1323 52.7202 89.2768 52.89C89.4268 53.065 89.5371 53.2704 89.6001 53.4921C89.663 53.7138 89.6772 53.9465 89.6415 54.1742L84.3417 88.5367C84.2883 88.9064 84.1037 89.2445 83.8216 89.4894C83.5396 89.7343 83.1788 89.8696 82.8053 89.8705ZM84.5675 52.6929C84.2761 52.6942 83.9948 52.8004 83.7752 52.992C83.5556 53.1837 83.4124 53.448 83.3718 53.7366L78.0735 88.0967C78.0454 88.2755 78.0564 88.4583 78.1057 88.6324C78.155 88.8066 78.2414 88.9679 78.3591 89.1055C78.4714 89.2373 78.6109 89.3432 78.768 89.4159C78.9251 89.4886 79.0961 89.5265 79.2693 89.5268H82.8022C83.0936 89.5255 83.3747 89.4193 83.5942 89.2277C83.8136 89.036 83.9567 88.7717 83.9972 88.4832L89.3008 54.1215C89.329 53.9427 89.318 53.7599 89.2687 53.5858C89.2194 53.4116 89.1329 53.2503 89.0153 53.1127C88.9029 52.981 88.7634 52.8752 88.6063 52.8024C88.4492 52.7297 88.2782 52.6918 88.1051 52.6914L84.5675 52.6929Z" fill="#1E293B"/>
<path d="M72.5255 89.8703H68.9926C68.7695 89.8697 68.5493 89.8209 68.3469 89.7271C68.1445 89.6333 67.9648 89.4969 67.8201 89.3271C67.6703 89.1517 67.5603 88.946 67.4976 88.724C67.4349 88.5021 67.4211 88.2692 67.457 88.0413L71.4144 62.5807C71.4667 62.2106 71.6508 61.8718 71.9329 61.6266C72.2151 61.3814 72.5762 61.2463 72.95 61.246H76.4844C76.7075 61.2464 76.9279 61.2951 77.1303 61.3889C77.3328 61.4826 77.5124 61.6192 77.6569 61.7892C77.8068 61.9645 77.9169 62.1703 77.9798 62.3922C78.0426 62.6142 78.0566 62.8471 78.0208 63.075L74.0635 88.5356C74.01 88.9057 73.8252 89.2441 73.5429 89.4891C73.2605 89.7342 72.8994 89.8695 72.5255 89.8703ZM71.7496 62.6342L67.7922 88.0949C67.7638 88.2736 67.7746 88.4564 67.8237 88.6306C67.8729 88.8047 67.9593 88.9661 68.077 89.1036C68.1891 89.2356 68.3286 89.3417 68.4858 89.4146C68.6429 89.4874 68.8139 89.5254 68.9872 89.5258H72.5201C72.8112 89.5245 73.0922 89.4186 73.3116 89.2272C73.531 89.0358 73.6742 88.7719 73.7151 88.4836L77.6724 63.0222C77.7007 62.8435 77.69 62.6608 77.6409 62.4867C77.5919 62.3126 77.5058 62.1511 77.3884 62.0134C77.2761 61.8815 77.1365 61.7754 76.9792 61.7025C76.822 61.6296 76.6508 61.5917 76.4775 61.5913H72.943C72.6524 61.5937 72.3724 61.7002 72.1538 61.8916C71.9352 62.083 71.7926 62.3465 71.7519 62.6342H71.7496Z" fill="#1E293B"/>
<path d="M62.2478 89.8706H58.7157C58.4925 89.8702 58.272 89.8214 58.0695 89.7276C57.867 89.6339 57.6871 89.4973 57.5424 89.3274C57.3925 89.1518 57.2824 88.9458 57.2198 88.7236C57.1573 88.5013 57.1437 88.2681 57.1801 88.0401L59.7873 71.4781C59.8413 71.109 60.0261 70.7716 60.3079 70.5273C60.5897 70.2829 60.9499 70.1478 61.3229 70.1465H64.8589C65.0821 70.1468 65.3026 70.1954 65.5052 70.2892C65.7078 70.383 65.8876 70.5196 66.0322 70.6897C66.1821 70.8653 66.2922 71.0713 66.3547 71.2936C66.4173 71.5158 66.4309 71.749 66.3945 71.977L63.7834 88.5367C63.7299 88.9062 63.5453 89.2441 63.2635 89.489C62.9816 89.7338 62.6212 89.8692 62.2478 89.8706ZM61.3229 70.4903C61.0321 70.4918 60.7515 70.5977 60.5321 70.7886C60.3128 70.9796 60.1694 71.243 60.1279 71.5308L57.5207 88.0929C57.4925 88.2715 57.5032 88.4542 57.5523 88.6283C57.6013 88.8024 57.6874 88.9639 57.8047 89.1016C57.9168 89.2339 58.0564 89.3402 58.2137 89.4133C58.371 89.4863 58.5422 89.5242 58.7157 89.5245H62.2478C62.5385 89.523 62.819 89.4173 63.0383 89.2264C63.2576 89.0356 63.4012 88.7724 63.4428 88.4847L66.0516 71.9227C66.08 71.744 66.0693 71.5613 66.0203 71.3872C65.9713 71.213 65.885 71.0516 65.7676 70.914C65.6555 70.7816 65.516 70.6751 65.3587 70.602C65.2014 70.5288 65.0301 70.4907 64.8566 70.4903H61.3229Z" fill="#1E293B"/>
<path d="M51.9467 89.8707H48.4076C48.1866 89.8701 47.9683 89.822 47.7675 89.7298C47.5667 89.6375 47.3881 89.5033 47.2437 89.336C47.0938 89.1631 46.9829 88.9599 46.9183 88.7404C46.8538 88.5208 46.8372 88.29 46.8696 88.0635L48.1802 78.8187C48.2319 78.4457 48.4157 78.1037 48.6982 77.8548C48.9807 77.6058 49.3432 77.4666 49.7197 77.4623H53.2596C53.4807 77.4631 53.6989 77.5113 53.8997 77.6037C54.1005 77.6961 54.2792 77.8304 54.4236 77.9978C54.5733 78.1706 54.6841 78.3736 54.7485 78.593C54.8129 78.8125 54.8294 79.0432 54.7968 79.2695L53.4854 88.5151C53.4337 88.8878 53.2499 89.2295 52.9675 89.4783C52.6852 89.727 52.323 89.8662 51.9467 89.8707ZM48.5209 78.8668L47.2111 88.1116C47.1852 88.2891 47.1979 88.4701 47.2483 88.6423C47.2986 88.8145 47.3854 88.9738 47.5028 89.1094C47.6151 89.2396 47.7541 89.3441 47.9104 89.4159C48.0666 89.4876 48.2364 89.525 48.4084 89.5254H51.9467C52.2402 89.5216 52.5225 89.4126 52.7424 89.2182C52.9623 89.0238 53.105 88.7569 53.1448 88.4662L54.46 79.2253C54.4857 79.0477 54.4728 78.8667 54.4223 78.6946C54.3718 78.5224 54.2849 78.3631 54.1675 78.2274C54.0553 78.0973 53.9165 77.9928 53.7604 77.921C53.6043 77.8493 53.4346 77.8119 53.2627 77.8115H49.719C49.4261 77.8152 49.1442 77.9236 48.9244 78.1172C48.7046 78.3108 48.5615 78.5768 48.5209 78.8668Z" fill="#1E293B"/>
<path d="M46.8859 102.154C45.5909 102.154 44.5371 101.081 44.5371 99.7637C44.5371 98.4461 45.5909 97.3738 46.8859 97.3738C48.181 97.3738 49.2347 98.4461 49.2347 99.7637C49.2347 101.081 48.181 102.154 46.8859 102.154ZM46.8859 97.7183C45.781 97.7183 44.8816 98.6363 44.8816 99.7637C44.8816 100.891 45.781 101.809 46.8859 101.809C47.9909 101.809 48.8895 100.891 48.8895 99.7637C48.8895 98.6363 47.9909 97.7183 46.8859 97.7183Z" fill="#1E293B"/>
<path d="M45.0266 111.294C43.7315 111.294 42.6777 110.221 42.6777 108.904C42.6777 107.586 43.7315 106.514 45.0266 106.514C46.3216 106.514 47.3754 107.586 47.3754 108.904C47.3754 110.222 46.3216 111.294 45.0266 111.294ZM45.0266 106.858C43.9216 106.858 43.023 107.776 43.023 108.904C43.023 110.032 43.9216 110.949 45.0266 110.949C46.1315 110.949 47.0308 110.031 47.0308 108.904C47.0308 107.776 46.1315 106.858 45.0266 106.858Z" fill="#1E293B"/>
<path d="M43.3859 120.879C42.0909 120.879 41.0371 119.808 41.0371 118.489C41.0371 117.171 42.0909 116.099 43.3859 116.099C44.681 116.099 45.7347 117.172 45.7347 118.489C45.7347 119.807 44.6833 120.879 43.3859 120.879ZM43.3859 116.444C42.281 116.444 41.3816 117.362 41.3816 118.489C41.3816 119.617 42.281 120.535 43.3859 120.535C44.4909 120.535 45.3894 119.618 45.3894 118.489C45.3894 117.361 44.4909 116.444 43.3859 116.444Z" fill="#1E293B"/>
<path d="M76.5297 99.9362H53.2309C53.1852 99.9362 53.1414 99.9181 53.109 99.8857C53.0767 99.8534 53.0586 99.8096 53.0586 99.7639C53.0586 99.7182 53.0767 99.6744 53.109 99.6421C53.1414 99.6098 53.1852 99.5917 53.2309 99.5917H76.5297C76.5754 99.5917 76.6192 99.6098 76.6515 99.6421C76.6838 99.6744 76.702 99.7182 76.702 99.7639C76.702 99.8096 76.6838 99.8534 76.6515 99.8857C76.6192 99.9181 76.5754 99.9362 76.5297 99.9362Z" fill="#1E293B"/>
<path d="M75.0717 109.002H72.6469C72.6012 109.002 72.5574 108.983 72.5251 108.951C72.4928 108.919 72.4746 108.875 72.4746 108.829C72.4746 108.784 72.4928 108.74 72.5251 108.707C72.5574 108.675 72.6012 108.657 72.6469 108.657H75.0717C75.1174 108.657 75.1612 108.675 75.1935 108.707C75.2258 108.74 75.244 108.784 75.244 108.829C75.244 108.875 75.2258 108.919 75.1935 108.951C75.1612 108.983 75.1174 109.002 75.0717 109.002Z" fill="white"/>
<path d="M68.2159 109.002H51.7719C51.7262 109.002 51.6824 108.983 51.6501 108.951C51.6178 108.919 51.5996 108.875 51.5996 108.829C51.5996 108.784 51.6178 108.74 51.6501 108.707C51.6824 108.675 51.7262 108.657 51.7719 108.657H68.2159C68.2616 108.657 68.3054 108.675 68.3377 108.707C68.37 108.74 68.3882 108.784 68.3882 108.829C68.3882 108.875 68.37 108.919 68.3377 108.951C68.3054 108.983 68.2616 109.002 68.2159 109.002Z" fill="#1E293B"/>
<path d="M73.1743 118.364H49.8754C49.8297 118.364 49.7859 118.346 49.7536 118.314C49.7213 118.281 49.7031 118.238 49.7031 118.192C49.7031 118.146 49.7213 118.102 49.7536 118.07C49.7859 118.038 49.8297 118.02 49.8754 118.02H73.1743C73.2199 118.02 73.2637 118.038 73.2961 118.07C73.3284 118.102 73.3465 118.146 73.3465 118.192C73.3465 118.238 73.3284 118.281 73.2961 118.314C73.2637 118.346 73.2199 118.364 73.1743 118.364Z" fill="#1E293B"/>
<path d="M48.4863 57.9042C48.4863 57.9042 51.9704 57.8522 53.7908 57.0622C55.6112 56.2723 55.5832 57.6427 55.068 58.1245C54.6505 58.5125 52.1349 59.9178 49.8799 60.0815L48.4863 57.9042Z" fill="white"/>
<path d="M49.8826 60.2536C49.8538 60.2538 49.8253 60.2468 49.7998 60.2333C49.7744 60.2197 49.7527 60.2 49.7368 60.176L48.34 57.9978C48.3233 57.972 48.3139 57.9422 48.3126 57.9115C48.3114 57.8808 48.3185 57.8503 48.333 57.8233C48.3479 57.7955 48.3699 57.7723 48.3968 57.7561C48.4237 57.7398 48.4545 57.7311 48.4859 57.7309C48.5201 57.7309 51.9568 57.6712 53.7244 56.9037C54.8433 56.418 55.2701 56.7392 55.4237 56.9744C55.6767 57.3623 55.5013 57.9559 55.191 58.2508C54.7091 58.7016 52.1399 60.0906 49.8974 60.2536H49.8826ZM48.7963 58.0677L49.9719 59.9036C52.1818 59.7073 54.6051 58.3269 54.9527 58.001C55.1622 57.8046 55.2887 57.3973 55.1366 57.166C54.9752 56.92 54.5112 56.941 53.8625 57.2227C52.3284 57.8861 49.698 58.0351 48.7963 58.0677Z" fill="#1E293B"/>
<path d="M43.4062 56.5981L45.1343 53.1839L46.7367 54.115C46.8251 54.1669 46.9003 54.2386 46.9562 54.3246L47.0571 54.4797C47.1189 54.5757 47.205 54.6536 47.3067 54.7054C47.4084 54.7572 47.522 54.7811 47.636 54.7746C47.7618 54.7669 47.8871 54.7966 47.996 54.86L59.9163 61.7761C60.0148 61.833 60.1053 61.9026 60.1855 61.9832L62.6476 64.4585L59.3622 63.8859C59.1829 63.8547 59.0084 63.8002 58.8431 63.7237L46.3735 57.9669C46.2668 57.9176 46.1754 57.8404 46.1089 57.7434L46.0926 57.7194C46.0305 57.6279 45.9459 57.554 45.847 57.5047C45.7481 57.4553 45.6381 57.4323 45.5277 57.4377L45.4152 57.4439C45.3116 57.4491 45.2083 57.4292 45.1141 57.3857L43.4062 56.5981Z" fill="white"/>
<path d="M62.6496 64.6326C62.6398 64.6333 62.6299 64.6333 62.6201 64.6326L59.3347 64.0599C59.1405 64.0264 58.9516 63.9675 58.7729 63.8845L46.3033 58.1277C46.1683 58.0656 46.0527 57.968 45.9688 57.8453L45.9518 57.8204C45.9063 57.7536 45.8445 57.6995 45.7723 57.6634C45.7 57.6273 45.6197 57.6103 45.539 57.614L45.4264 57.6202C45.2945 57.6257 45.1633 57.5991 45.0439 57.5426L43.3368 56.7535C43.3157 56.7438 43.2968 56.7299 43.2812 56.7127C43.2656 56.6955 43.2536 56.6753 43.246 56.6534C43.2383 56.6316 43.2351 56.6084 43.2367 56.5853C43.2383 56.5622 43.2447 56.5397 43.2553 56.5192L44.9826 53.105C44.9934 53.0841 45.0083 53.0656 45.0264 53.0506C45.0446 53.0357 45.0656 53.0246 45.0881 53.018C45.1105 53.0112 45.1341 53.0091 45.1573 53.012C45.1806 53.0148 45.203 53.0224 45.2231 53.0343L46.8263 53.9655C46.9382 54.0306 47.0331 54.1213 47.1033 54.2301L47.2042 54.3853C47.2494 54.4557 47.3126 54.5128 47.3872 54.5508C47.4617 54.5889 47.545 54.6064 47.6286 54.6018C47.7881 54.5919 47.9469 54.6297 48.0849 54.7104L60.0059 61.6257C60.1167 61.6902 60.2189 61.7684 60.3101 61.8585L62.7729 64.3338C62.7971 64.358 62.8135 64.3887 62.8201 64.4222C62.8268 64.4557 62.8233 64.4904 62.8102 64.5219C62.797 64.5534 62.7748 64.5803 62.7464 64.5992C62.7179 64.6181 62.6845 64.6281 62.6503 64.6279L62.6496 64.6326ZM45.563 57.2656C45.6958 57.2662 45.8264 57.299 45.9437 57.3612C46.061 57.4234 46.1615 57.513 46.2365 57.6226L46.2536 57.6474C46.3022 57.7186 46.3692 57.7752 46.4476 57.8111L58.9172 63.5687C59.069 63.6386 59.2291 63.6886 59.3937 63.7177L62.1444 64.1965L60.0648 62.106C59.9953 62.0363 59.9171 61.9758 59.8321 61.926L47.9118 55.0099C47.8324 54.9638 47.7412 54.9422 47.6496 54.9478C47.505 54.9565 47.3607 54.9265 47.2315 54.8609C47.1024 54.7953 46.993 54.6965 46.9147 54.5746L46.8138 54.4194C46.7732 54.3558 46.7182 54.3027 46.6532 54.2642L45.2084 53.4246L43.6433 56.5153L45.189 57.2292C45.2576 57.261 45.333 57.2757 45.4086 57.2718L45.5211 57.2656H45.563Z" fill="#1E293B"/>
<path d="M59.5821 63.0944C59.5583 63.0944 59.5347 63.0894 59.513 63.0796C59.4713 63.0613 59.4385 63.0271 59.422 62.9846C59.4054 62.9421 59.4063 62.8948 59.4245 62.853L59.8793 61.8202C59.8987 61.7801 59.933 61.7491 59.9749 61.7337C60.0167 61.7183 60.0629 61.7198 60.1038 61.7378C60.1446 61.7558 60.1768 61.7889 60.1937 61.8302C60.2106 61.8715 60.2108 61.9177 60.1943 61.9591L59.7373 62.9919C59.7239 63.0221 59.7022 63.0477 59.6747 63.0659C59.6472 63.084 59.615 63.0939 59.5821 63.0944Z" fill="#1E293B"/>
<path d="M42.3646 51.6787L44.9594 53.0754C45.0234 53.1099 45.0712 53.1683 45.0924 53.2379C45.1137 53.3075 45.1066 53.3827 45.0727 53.4471L43.5503 56.3678C43.5334 56.4001 43.5103 56.4288 43.4823 56.4522C43.4543 56.4756 43.4219 56.4932 43.387 56.5039C43.3522 56.5147 43.3155 56.5184 43.2792 56.5149C43.2429 56.5114 43.2076 56.5006 43.1755 56.4834L40.5861 55.0867C40.3375 54.9554 40.1503 54.7318 40.0646 54.4639C39.979 54.1961 40.0019 53.9054 40.1283 53.6542L40.9415 52.0946C41.0066 51.9728 41.0954 51.8653 41.2026 51.7783C41.3097 51.6913 41.4332 51.6265 41.5657 51.5878C41.6982 51.549 41.8371 51.5371 41.9743 51.5527C42.1115 51.5683 42.2442 51.6111 42.3646 51.6787Z" fill="#1E293B"/>
<path d="M43.3049 56.6901C43.2309 56.6897 43.1582 56.6711 43.0931 56.6358L40.5045 55.2391C40.2163 55.086 39.9994 54.8262 39.9005 54.5152C39.8016 54.2042 39.8284 53.8668 39.9753 53.5754L40.7885 52.015C40.8612 51.8748 40.9612 51.7507 41.0826 51.6498C41.204 51.5489 41.3443 51.4733 41.4954 51.4276C41.6523 51.3796 41.8172 51.3633 41.9804 51.3799C42.1436 51.3964 42.3019 51.4453 42.446 51.5238L45.0408 52.9205C45.1444 52.9768 45.2218 53.0715 45.2563 53.1842C45.2909 53.297 45.2798 53.4188 45.2254 53.5234L43.703 56.4441C43.6756 56.4969 43.6379 56.5436 43.5922 56.5815C43.5465 56.6195 43.4937 56.648 43.4369 56.6653C43.3944 56.68 43.3499 56.6884 43.3049 56.6901ZM41.8547 51.7193C41.7671 51.7195 41.68 51.7326 41.5963 51.7581C41.489 51.7908 41.3894 51.8445 41.3031 51.9162C41.2169 51.9879 41.1459 52.0761 41.0942 52.1756L40.281 53.7353C40.1758 53.9465 40.1576 54.1904 40.2301 54.415C40.3026 54.6395 40.4602 54.8267 40.669 54.9364L43.2576 56.3332C43.2694 56.3395 43.2823 56.3435 43.2956 56.3448C43.3089 56.3462 43.3224 56.3448 43.3352 56.3409C43.3483 56.3369 43.3605 56.3303 43.371 56.3215C43.3816 56.3127 43.3902 56.3019 43.3965 56.2897L44.9174 53.3682C44.93 53.344 44.9327 53.3158 44.9247 53.2896C44.9167 53.2635 44.8987 53.2416 44.8747 53.2286L42.2799 51.8318C42.1497 51.7596 42.0036 51.721 41.8547 51.7193Z" fill="#1E293B"/>
<path d="M46.1547 57.1104C46.1262 57.1104 46.0982 57.1031 46.0733 57.0894C46.0331 57.0679 46.0031 57.0313 45.9898 56.9877C45.9766 56.944 45.9812 56.8969 46.0026 56.8567L46.8624 55.2481C46.884 55.2078 46.9208 55.1777 46.9646 55.1644C47.0084 55.1512 47.0556 55.1559 47.096 55.1775C47.1363 55.1991 47.1664 55.2358 47.1796 55.2796C47.1929 55.3234 47.1882 55.3707 47.1666 55.4111L46.3068 57.0165C46.2924 57.0445 46.2706 57.0681 46.2438 57.0846C46.217 57.1012 46.1862 57.1101 46.1547 57.1104Z" fill="#1E293B"/>
<path d="M51.7451 58.3325C51.7155 58.3325 51.6864 58.325 51.6605 58.3108L48.1074 56.3158C48.0868 56.3052 48.0685 56.2906 48.0537 56.2728C48.0388 56.2551 48.0277 56.2344 48.021 56.2123C48.0143 56.1901 48.0122 56.1668 48.0147 56.1438C48.0172 56.1207 48.0243 56.0985 48.0357 56.0782C48.047 56.058 48.0623 56.0403 48.0806 56.0262C48.099 56.012 48.12 56.0017 48.1424 55.9958C48.1648 55.99 48.1882 55.9887 48.2111 55.9921C48.234 55.9955 48.256 56.0034 48.2758 56.0155L51.8296 58.0097C51.8631 58.0283 51.8893 58.0575 51.9043 58.0926C51.9193 58.1278 51.9222 58.1669 51.9125 58.2039C51.9028 58.2409 51.8811 58.2736 51.8508 58.2969C51.8205 58.3202 51.7833 58.3327 51.7451 58.3325Z" fill="#1E293B"/>
<path d="M58.7817 62.4374C58.7524 62.4375 58.7235 62.43 58.6979 62.4157L57.3097 61.6436C57.2721 61.6201 57.245 61.583 57.234 61.54C57.2229 61.497 57.2288 61.4514 57.2504 61.4127C57.2721 61.3739 57.3078 61.3449 57.3501 61.3317C57.3925 61.3185 57.4383 61.3221 57.4781 61.3418L58.8655 62.1177C58.8989 62.1363 58.9251 62.1654 58.9401 62.2005C58.9552 62.2355 58.9581 62.2746 58.9485 62.3116C58.9389 62.3485 58.9174 62.3812 58.8872 62.4045C58.857 62.4279 58.8199 62.4405 58.7817 62.4405V62.4374Z" fill="#1E293B"/>
<path d="M43.0472 55.4732C43.0181 55.4732 42.9895 55.4657 42.9641 55.4515L40.9823 54.3652C40.9422 54.3432 40.9124 54.3063 40.8996 54.2624C40.8867 54.2185 40.8918 54.1713 40.9137 54.1312C40.9356 54.0911 40.9726 54.0613 41.0164 54.0484C41.0603 54.0355 41.1075 54.0406 41.1476 54.0625L43.1302 55.1489C43.1637 55.1674 43.19 55.1966 43.2052 55.2317C43.2203 55.2669 43.2234 55.306 43.2139 55.3431C43.2044 55.3802 43.1829 55.4131 43.1527 55.4366C43.1226 55.4601 43.0854 55.473 43.0472 55.4732Z" fill="white"/>
<path d="M42.206 59.2683C42.206 59.2683 45.2889 59.7052 47.3677 58.0998C49.1361 56.7333 52.7179 60.6441 53.026 61.1407C53.4621 61.8437 52.5022 62.9479 51.3965 62.3225C51.3965 62.3225 51.1032 64.0653 48.7117 64.3578C46.3202 64.6504 45.2975 63.0837 44.6588 62.8494C44.0202 62.615 42.1758 62.6026 42.1758 62.6026L42.206 59.2683Z" fill="white"/>
<path d="M48.1231 64.5663C46.6488 64.5663 45.7603 63.868 45.1458 63.383C44.927 63.2115 44.7384 63.0625 44.5964 63.0113C43.9904 62.7902 42.1909 62.7785 42.1746 62.7785C42.1288 62.7777 42.0851 62.7591 42.0528 62.7266C42.037 62.7104 42.0245 62.6912 42.0161 62.6701C42.0077 62.6491 42.0036 62.6266 42.0039 62.604L42.0326 59.2673C42.0328 59.2427 42.0383 59.2185 42.0486 59.1961C42.059 59.1738 42.074 59.154 42.0927 59.1379C42.1114 59.1219 42.1333 59.1101 42.1569 59.1032C42.1805 59.0963 42.2054 59.0946 42.2297 59.0982C42.26 59.1021 45.266 59.5056 47.2618 57.9637C47.6366 57.6743 48.1045 57.5758 48.6539 57.6774C50.5643 58.0227 52.9278 60.6563 53.1723 61.0505C53.4051 61.4261 53.3275 61.9227 52.9791 62.2858C52.7915 62.4777 52.5497 62.6076 52.2861 62.6579C52.0225 62.7083 51.7498 62.6767 51.5047 62.5675C51.3301 63.0695 50.7086 64.2878 48.7315 64.5291C48.5297 64.5541 48.3265 64.5665 48.1231 64.5663ZM42.35 62.4325C42.8295 62.4426 44.165 62.4868 44.7151 62.687C44.9083 62.7576 45.107 62.9136 45.3592 63.1114C46.0086 63.622 46.9887 64.3933 48.688 64.1861C50.9142 63.9138 51.2122 62.3588 51.2238 62.2928C51.2286 62.2655 51.2398 62.2398 51.2566 62.2178C51.2734 62.1958 51.2952 62.1781 51.3202 62.1662C51.3452 62.1544 51.3727 62.1487 51.4003 62.1496C51.428 62.1506 51.455 62.1582 51.4791 62.1717C52.0223 62.4775 52.4801 62.3075 52.7308 62.0468C52.9286 61.8404 53.0512 61.5083 52.879 61.2313C52.6733 60.9 50.3812 58.3393 48.5926 58.0157C48.1371 57.9335 47.7708 58.0056 47.4729 58.2353C45.6393 59.6522 43.0996 59.5296 42.3764 59.4606L42.35 62.4325Z" fill="#1E293B"/>
<path d="M21.2597 34.4774C21.2597 34.4774 17.0369 36.2535 14.8099 43.4862C13.5793 47.4785 13.8012 53.1709 19.873 60.7373C21.0874 62.2512 22.7922 63.7565 24.7166 63.9738L43.1603 64.153L43.0788 58.2488C43.0788 58.2488 28.7748 56.3865 26.6285 55.5818C24.7243 54.8656 21.9666 45.5425 21.6795 40.9682L21.2597 34.4774Z" fill="white"/>
<path d="M43.1568 64.3268L24.7131 64.1476H24.6952C22.5939 63.9101 20.8387 62.2216 19.7369 60.8474C19.0827 60.0327 18.4527 59.2063 17.8629 58.3923C17.8361 58.3552 17.825 58.3091 17.8322 58.2639C17.8394 58.2187 17.8643 58.1782 17.9013 58.1514C17.9384 58.1245 17.9846 58.1135 18.0298 58.1207C18.0749 58.1279 18.1154 58.1527 18.1423 58.1898C18.7281 58.9991 19.3551 59.8193 20.0046 60.6317C21.0645 61.9508 22.7429 63.5757 24.7239 63.8038L42.9822 63.9807L42.9046 58.4024C41.2968 58.1921 28.6122 56.5168 26.5614 55.7455C24.8489 55.1015 22.8236 48.6308 21.9949 44.46C21.9905 44.4378 21.9905 44.4149 21.995 44.3927C21.9995 44.3705 22.0082 44.3494 22.0208 44.3306C22.0335 44.3118 22.0496 44.2957 22.0685 44.2831C22.0873 44.2706 22.1085 44.2619 22.1307 44.2575C22.1529 44.2531 22.1758 44.2531 22.198 44.2576C22.2202 44.262 22.2413 44.2708 22.2601 44.2834C22.2789 44.296 22.295 44.3122 22.3076 44.3311C22.3201 44.3499 22.3288 44.371 22.3332 44.3933C23.2876 49.1957 25.309 54.9059 26.6786 55.4227C28.7853 56.215 42.9504 58.061 43.0931 58.0796C43.1343 58.0851 43.1721 58.1052 43.1997 58.1363C43.2274 58.1673 43.2429 58.2072 43.2437 58.2487L43.3213 64.153C43.3216 64.1759 43.3174 64.1987 43.3089 64.2201C43.3004 64.2414 43.2877 64.2608 43.2716 64.2771C43.2407 64.3071 43.1998 64.3248 43.1568 64.3268Z" fill="#1E293B"/>
<path d="M58.837 11.0077C59.0512 11.5671 59.4726 13.0717 58.7788 14.0804C58.1581 14.9852 56.8591 15.0217 56.1212 14.2092C55.7332 13.7832 55.547 13.0872 55.2576 12.1049C55.1377 11.6979 54.938 11.3188 54.6702 10.9898C54.5948 10.8934 54.4985 10.8153 54.3885 10.7615C54.2786 10.7078 54.1578 10.6797 54.0354 10.6794L51.8418 10.6686C51.8418 10.6686 51.8589 9.81501 52.4975 9.47204C53.0562 9.17174 54.5026 9.41927 54.6151 9.24934C55.8791 7.34824 57.9734 8.7566 58.837 11.0077Z" fill="white"/>
<path d="M57.4178 14.9626C57.1489 14.9621 56.883 14.9052 56.6375 14.7954C56.3919 14.6857 56.1722 14.5256 55.9924 14.3256C55.6044 13.8957 55.4096 13.2392 55.1388 12.3291L55.0868 12.1537C54.9729 11.7676 54.7833 11.4081 54.5289 11.0961C54.4698 11.0199 54.394 10.9583 54.3074 10.9159C54.2208 10.8736 54.1256 10.8516 54.0292 10.8516L51.8356 10.8408C51.8127 10.8407 51.7901 10.836 51.769 10.8271C51.7479 10.8181 51.7289 10.8051 51.7129 10.7887C51.6969 10.7723 51.6844 10.7529 51.676 10.7316C51.6676 10.7103 51.6636 10.6875 51.6641 10.6646C51.6641 10.6258 51.6913 9.70554 52.4106 9.31989C52.7698 9.12746 53.4015 9.13522 53.909 9.14142C54.1013 9.15046 54.294 9.14475 54.4855 9.12435C55.0706 8.26459 55.7581 8.1451 56.2345 8.19786C57.2991 8.31581 58.4072 9.41999 58.9922 10.9455C59.1211 11.28 59.7201 13.008 58.9146 14.1782C58.7601 14.4038 58.5563 14.5913 58.3186 14.7265C58.081 14.8618 57.8156 14.9412 57.5428 14.9588C57.504 14.9611 57.4613 14.9626 57.4178 14.9626ZM52.0327 10.497L54.0347 10.5063C54.1833 10.5064 54.33 10.5404 54.4635 10.6058C54.5971 10.6711 54.7139 10.7661 54.8052 10.8834C55.0873 11.2296 55.2983 11.628 55.4259 12.0559L55.4772 12.2321C55.7309 13.0972 55.9148 13.7227 56.2531 14.0944C56.4124 14.2724 56.6101 14.4118 56.8313 14.502C57.0524 14.5922 57.2912 14.6308 57.5296 14.615C57.7506 14.6011 57.9655 14.537 58.1581 14.4275C58.3506 14.3181 58.5157 14.1662 58.6407 13.9834C59.3476 12.956 58.7959 11.3762 58.6803 11.0697C58.148 9.68382 57.1284 8.64403 56.2058 8.54161C55.6448 8.47953 55.159 8.74957 54.7625 9.3455C54.6663 9.4906 54.4467 9.49371 53.9144 9.48673C53.4705 9.48129 52.8637 9.47353 52.5828 9.62407C52.1995 9.82659 52.0746 10.2549 52.0327 10.497Z" fill="#1E293B"/>
<path d="M22.9346 120.305L21.5898 126.759L25.1096 127.755L27.0557 121.472L22.9346 120.305Z" fill="white"/>
<path d="M25.1117 127.927C25.0957 127.927 25.0797 127.925 25.0643 127.921L21.5454 126.925C21.5034 126.913 21.4675 126.886 21.4449 126.848C21.4223 126.811 21.4146 126.766 21.4236 126.724L22.7675 120.273C22.7722 120.25 22.7815 120.228 22.7948 120.209C22.8082 120.19 22.8253 120.173 22.8451 120.161C22.8653 120.148 22.8877 120.141 22.9111 120.137C22.9345 120.134 22.9583 120.136 22.9809 120.143L27.102 121.307C27.1241 121.313 27.1448 121.324 27.1628 121.338C27.1807 121.353 27.1957 121.37 27.2068 121.391C27.2179 121.411 27.2247 121.433 27.227 121.456C27.2293 121.479 27.2269 121.502 27.2199 121.524L25.2738 127.809C25.2626 127.843 25.2409 127.873 25.2118 127.894C25.1827 127.916 25.1477 127.927 25.1117 127.927ZM21.7937 126.636L24.9968 127.543L26.8374 121.592L23.0647 120.524L21.7937 126.636Z" fill="#1E293B"/>
<path d="M20.427 132.197C20.4665 132.818 21.2262 133.316 21.84 133.409C23.9746 133.732 28.9912 133.596 30.3538 133.69C32.1222 133.812 35.444 133.68 35.5721 132.552C35.7273 131.175 34.2467 129.168 30.6983 128.069C28.8632 127.5 26.9217 124.682 26.0627 124.632C25.2037 124.581 23.6836 126.805 23.6836 126.805L21.2386 125.973C21.2386 125.973 20.2252 129.048 20.427 132.197Z" fill="white"/>
<path d="M31.4675 133.893C30.8196 133.893 30.3579 133.863 30.3424 133.862C29.8768 133.829 28.962 133.825 27.902 133.819C25.8178 133.807 23.2238 133.793 21.8146 133.58C21.0969 133.471 20.2992 132.894 20.255 132.208C20.054 129.062 21.0643 125.952 21.0751 125.923C21.0822 125.902 21.0935 125.882 21.1084 125.864C21.1233 125.847 21.1415 125.833 21.1618 125.823C21.1822 125.813 21.2043 125.807 21.227 125.806C21.2497 125.804 21.2725 125.807 21.294 125.815L23.6164 126.604C23.9625 126.116 25.2281 124.413 26.0731 124.462C26.52 124.488 27.1175 125.06 27.8733 125.781C28.7191 126.591 29.7721 127.6 30.7498 127.903C34.4169 129.039 35.9091 131.119 35.7438 132.57C35.6127 133.721 33.0117 133.893 31.4675 133.893ZM21.3514 126.196C21.1489 126.874 20.4288 129.52 20.5995 132.187C20.6321 132.699 21.2932 133.152 21.8658 133.239C23.2509 133.448 25.831 133.462 27.9036 133.472C28.9697 133.477 29.89 133.483 30.3657 133.515C32.3358 133.652 35.2984 133.433 35.4016 132.53C35.5568 131.174 33.9723 129.261 30.6473 128.231C29.592 127.904 28.5073 126.864 27.6351 126.029C26.9864 125.409 26.3734 124.821 26.0529 124.802C25.4965 124.769 24.3931 126.073 23.8267 126.902C23.8054 126.933 23.7745 126.957 23.7388 126.969C23.7031 126.98 23.6645 126.98 23.6288 126.968L21.3514 126.196Z" fill="#1E293B"/>
<path d="M32.391 132.214C31.9255 132.214 31.411 132.188 30.8678 132.159C30.0632 132.117 29.2306 132.074 28.4111 132.111C26.9257 132.179 25.4376 132.157 23.9548 132.046C22.0925 131.905 22.0149 131.787 21.987 131.743C21.9709 131.716 21.962 131.686 21.961 131.656C21.9601 131.625 21.9671 131.595 21.9816 131.567C22.0034 131.527 22.0401 131.498 22.0836 131.485C22.1272 131.472 22.1742 131.476 22.2144 131.497C22.5116 131.575 25.104 131.917 28.3925 131.766C29.2282 131.728 30.0694 131.772 30.8826 131.814C32.1148 131.878 33.2779 131.939 33.9507 131.653C33.9715 131.644 33.9939 131.639 34.0166 131.639C34.0392 131.639 34.0617 131.643 34.0827 131.651C34.1037 131.66 34.1228 131.672 34.139 131.688C34.1551 131.704 34.168 131.723 34.1769 131.744C34.1858 131.765 34.1904 131.787 34.1906 131.81C34.1909 131.832 34.1866 131.855 34.1781 131.876C34.1697 131.897 34.1572 131.916 34.1413 131.932C34.1254 131.948 34.1066 131.961 34.0857 131.97C33.6481 132.159 33.0669 132.214 32.391 132.214Z" fill="#1E293B"/>
<path d="M27.8341 130.001C27.8002 130.001 27.7672 129.991 27.739 129.972C27.7108 129.953 27.6888 129.927 27.6756 129.895C27.6625 129.864 27.6588 129.83 27.6651 129.796C27.6713 129.763 27.6872 129.732 27.7107 129.708L28.9988 128.389C29.0147 128.373 29.0336 128.36 29.0544 128.351C29.0752 128.342 29.0976 128.337 29.1203 128.337C29.143 128.337 29.1654 128.341 29.1865 128.349C29.2075 128.358 29.2267 128.37 29.2429 128.386C29.2591 128.402 29.272 128.421 29.2809 128.442C29.2898 128.463 29.2945 128.485 29.2948 128.508C29.295 128.53 29.2908 128.553 29.2824 128.574C29.2739 128.595 29.2614 128.614 29.2456 128.63L27.9575 129.949C27.9249 129.982 27.8805 130.001 27.8341 130.001Z" fill="#1E293B"/>
<path d="M3.84721 119.999L3.66797 124.499L6.80981 125.258L7.36928 120.031L3.84721 119.999Z" fill="white"/>
<path d="M6.80837 125.431C6.79447 125.431 6.78063 125.429 6.76724 125.426L3.62617 124.667C3.58749 124.657 3.55323 124.635 3.52918 124.603C3.50514 124.572 3.4928 124.533 3.49426 124.493L3.6735 119.992C3.6753 119.948 3.69422 119.906 3.72631 119.875C3.7584 119.844 3.80119 119.826 3.84576 119.826L7.36783 119.859C7.39187 119.859 7.41564 119.864 7.43757 119.874C7.4595 119.884 7.47912 119.898 7.49515 119.916C7.51117 119.934 7.52325 119.955 7.53059 119.978C7.53793 120.001 7.54038 120.025 7.53776 120.049L6.9783 125.277C6.9739 125.32 6.95395 125.359 6.92229 125.388C6.89064 125.416 6.84951 125.432 6.80681 125.433L6.80837 125.431ZM3.84421 124.365L6.65783 125.045L7.17617 120.201L4.01104 120.172L3.84421 124.365Z" fill="#1E293B"/>
<path d="M7.28837 133.442C6.02977 133.62 3.97504 133.695 1.54164 133.442C0.450642 133.328 0.0246432 131.813 0.216304 131.03C0.750162 128.857 1.67743 125.348 3.25572 123.436L3.83536 124.6L4.38241 123.462C4.41911 123.396 4.47072 123.34 4.53311 123.297C4.5955 123.255 4.66693 123.228 4.74168 123.218L5.92191 123.23C6.04149 123.215 6.16241 123.245 6.26051 123.315C6.35861 123.385 6.42668 123.49 6.45111 123.608L6.63967 124.508L7.64841 123.344L8.43446 131.923C8.48295 132.276 8.38962 132.634 8.17486 132.919C7.96011 133.204 7.64139 133.392 7.28837 133.442Z" fill="white"/>
<path d="M4.6025 133.775C3.57397 133.773 2.54623 133.717 1.52351 133.608C1.10449 133.564 0.735914 133.333 0.459674 132.94C0.0266899 132.324 -0.074961 131.489 0.049192 130.983C0.689356 128.374 1.6174 125.145 3.12353 123.321C3.14204 123.298 3.16601 123.28 3.19317 123.27C3.22033 123.259 3.24977 123.255 3.27872 123.259C3.3073 123.262 3.33462 123.273 3.35811 123.289C3.38159 123.306 3.40047 123.328 3.41296 123.354L3.83586 124.207L4.23004 123.387C4.2793 123.296 4.34968 123.217 4.43536 123.158C4.52105 123.099 4.61957 123.061 4.72278 123.047H4.74606L5.91542 123.059C6.07602 123.043 6.23703 123.086 6.36761 123.181C6.49819 123.276 6.58916 123.416 6.62309 123.574L6.74026 124.134L7.51622 123.234C7.53833 123.209 7.56746 123.19 7.6 123.181C7.63254 123.172 7.66704 123.173 7.69922 123.183C7.73139 123.193 7.75982 123.213 7.78095 123.239C7.80208 123.266 7.81499 123.298 7.81807 123.331L8.60566 131.913C8.65644 132.309 8.5495 132.71 8.30787 133.028C8.06623 133.347 7.70921 133.557 7.31369 133.615C6.41469 133.731 5.50883 133.784 4.6025 133.775ZM3.22285 123.751C1.67637 125.8 0.776264 129.468 0.384406 131.065C0.281203 131.485 0.371989 132.215 0.74212 132.742C0.962492 133.053 1.23796 133.232 1.55998 133.265C3.61626 133.481 5.75014 133.482 7.26481 133.265C7.57159 133.22 7.84826 133.056 8.03499 132.808C8.22172 132.561 8.30352 132.25 8.26269 131.942L7.51544 123.765L6.77285 124.619C6.75183 124.643 6.72445 124.661 6.69381 124.67C6.66316 124.68 6.63047 124.681 6.59942 124.673C6.56836 124.665 6.54017 124.648 6.51803 124.625C6.49589 124.601 6.48068 124.573 6.47411 124.541L6.28555 123.642C6.26929 123.566 6.22557 123.5 6.16288 123.455C6.1002 123.41 6.02305 123.39 5.94646 123.399C5.93872 123.4 5.93092 123.4 5.92318 123.399L4.75537 123.388C4.70949 123.396 4.66594 123.413 4.62803 123.44C4.59011 123.467 4.55882 123.502 4.53655 123.543L3.99338 124.672C3.97965 124.702 3.95771 124.727 3.93018 124.744C3.90266 124.761 3.87072 124.77 3.83819 124.77C3.80636 124.769 3.77544 124.759 3.7483 124.742C3.72116 124.726 3.69869 124.702 3.68299 124.675L3.22285 123.751Z" fill="#1E293B"/>
<path d="M3.7923 132.37C2.93625 132.375 2.0823 132.284 1.24639 132.1C1.20381 132.087 1.16753 132.059 1.14504 132.021C1.12256 131.983 1.11556 131.938 1.12551 131.894C1.13546 131.851 1.16159 131.813 1.19851 131.789C1.23544 131.764 1.28035 131.755 1.32398 131.763C4.28659 132.44 7.38343 131.57 7.41446 131.561C7.43622 131.555 7.459 131.553 7.4815 131.555C7.50399 131.558 7.52577 131.565 7.54559 131.576C7.5654 131.587 7.58287 131.601 7.59698 131.619C7.6111 131.637 7.62159 131.657 7.62785 131.679C7.63412 131.701 7.63604 131.723 7.6335 131.746C7.63097 131.768 7.62403 131.79 7.61307 131.81C7.60212 131.83 7.58737 131.847 7.56967 131.861C7.55197 131.876 7.53166 131.886 7.50991 131.892C6.29605 132.209 5.04676 132.369 3.7923 132.37Z" fill="#1E293B"/>
<path d="M3.06733 129.041C3.02342 129.039 2.98193 129.021 2.95129 128.989C2.92065 128.958 2.90316 128.916 2.90237 128.872C2.90158 128.828 2.91755 128.785 2.94704 128.753C2.97652 128.72 3.01731 128.7 3.06112 128.696L5.89336 128.602C5.93889 128.601 5.98294 128.618 6.01614 128.65C6.04934 128.681 6.06904 128.724 6.07106 128.769C6.07189 128.792 6.06825 128.814 6.06035 128.836C6.05245 128.857 6.04045 128.876 6.02503 128.893C6.0096 128.909 5.99107 128.923 5.97047 128.932C5.94988 128.942 5.92763 128.947 5.905 128.948L3.07276 129.041L3.06733 129.041Z" fill="#1E293B"/>
<path d="M37.0217 66.0883C38.2135 73.0634 40.38 90.205 35.7025 103.028C31.6769 114.063 28.8035 119.556 27.6993 121.553C27.5523 121.819 27.3286 122.035 27.0572 122.173C26.7858 122.31 26.4793 122.363 26.1777 122.323L23.3066 121.954C23.1046 121.928 22.9098 121.861 22.7339 121.759C22.558 121.656 22.4046 121.519 22.2827 121.355C22.1607 121.192 22.0728 121.006 22.0241 120.808C21.9754 120.61 21.9669 120.405 21.9991 120.203C23.0459 113.638 27.2043 81.6804 26.097 78.7271L8.27946 120.616C8.18571 120.834 8.02986 121.018 7.83147 121.147C7.63308 121.276 7.40101 121.344 7.16441 121.341L4.15447 121.308C3.99492 121.305 3.83739 121.272 3.69105 121.208C3.5447 121.144 3.41246 121.052 3.302 120.937C3.19154 120.822 3.10506 120.686 3.0476 120.537C2.99013 120.388 2.96283 120.23 2.96726 120.07C3.85573 86.1646 13.7818 80.7089 16.69 64.4984C16.697 64.4603 17.6429 65.5995 17.6778 65.6204C20.59 67.3073 22.0473 67.1723 26.5152 67.4198C31.3471 67.6844 35.836 65.861 36.8944 65.9098C36.9751 65.9137 37.0077 66.0076 37.0217 66.0883Z" fill="#2563EB"/>
<path d="M31.6979 33.6096L32.522 29.3861C32.5506 29.2477 32.622 29.1219 32.7262 29.0265C32.8304 28.931 32.962 28.8709 33.1024 28.8546L34.7583 28.666C34.9303 28.6462 35.0911 28.5707 35.2161 28.4509C35.3411 28.331 35.4234 28.1736 35.4504 28.0026L35.8252 25.6468C35.8263 25.6433 35.8285 25.6403 35.8314 25.6382L36.6182 25.2122C36.6934 25.1711 36.7496 25.1023 36.7749 25.0205C36.8003 24.9387 36.7928 24.8502 36.754 24.7738L35.9245 23.152C35.7639 22.8362 35.542 21.057 35.1889 21.0717C35.1889 21.0717 29.2288 18.996 27.4759 21.4698C27.0104 22.1255 26.9607 22.9907 27.275 23.7301L27.6761 24.6753C28.0928 25.6561 28.1859 26.7587 27.867 27.7752C27.7522 28.141 27.5921 28.4911 27.3906 28.8173L25.1504 32.3091C26.7768 33.1259 28.5668 33.5644 30.3865 33.5918L31.6979 33.6096Z" fill="white"/>
<path d="M31.6978 33.7822L30.3864 33.7628C28.5411 33.7327 26.7262 33.2883 25.0758 32.4623C25.0542 32.4515 25.0351 32.4363 25.0197 32.4177C25.0044 32.3991 24.9931 32.3774 24.9867 32.3541C24.9803 32.3309 24.9788 32.3065 24.9824 32.2826C24.986 32.2588 24.9945 32.2359 25.0075 32.2156L27.2477 28.7238C27.441 28.4107 27.5946 28.0747 27.7047 27.7236C28.0004 26.7784 27.9375 25.72 27.5193 24.7423L27.1181 23.7988C26.7712 22.9825 26.855 22.0521 27.3377 21.3716C29.1038 18.8784 34.7357 20.7345 35.2222 20.9013C35.5489 20.9277 35.7025 21.5027 35.9105 22.4284C35.9518 22.6476 36.0086 22.8636 36.0804 23.0748L36.9091 24.6965C36.9683 24.813 36.9797 24.9479 36.941 25.0726C36.9023 25.1974 36.8166 25.3021 36.7019 25.3646L35.985 25.7526L35.6234 28.0301C35.5898 28.2381 35.4893 28.4296 35.3371 28.5754C35.1849 28.7212 34.9892 28.8133 34.7799 28.8378L33.1217 29.0264C33.0173 29.0384 32.9195 29.0831 32.842 29.154C32.7645 29.2249 32.7114 29.3185 32.6902 29.4213L31.8677 33.6433C31.8598 33.6826 31.8386 33.7178 31.8076 33.7432C31.7766 33.7685 31.7378 33.7823 31.6978 33.7822ZM25.4001 32.2388C26.9586 32.9877 28.6607 33.39 30.3895 33.4183L31.5535 33.4354L32.3496 29.3531C32.3849 29.1787 32.4746 29.02 32.6058 28.8998C32.737 28.7796 32.903 28.7041 33.0798 28.6842L34.7357 28.4949C34.8705 28.4796 34.9966 28.4206 35.0947 28.3268C35.1928 28.233 35.2575 28.1097 35.2788 27.9757L35.6528 25.6199C35.658 25.5923 35.6692 25.5661 35.6856 25.5432C35.7019 25.5203 35.723 25.5012 35.7475 25.4872L36.5359 25.0636C36.572 25.0443 36.599 25.0115 36.611 24.9725C36.6231 24.9334 36.6192 24.8911 36.6003 24.8548L35.7716 23.2331C35.7103 23.1144 35.6559 22.8793 35.5721 22.506C35.4883 22.1328 35.3137 21.3607 35.1741 21.2459C35.1595 21.2449 35.1452 21.242 35.1314 21.2373C35.0732 21.2164 29.2745 19.2323 27.617 21.5725C27.2035 22.1561 27.1328 22.9584 27.4331 23.6676L27.8343 24.6112C28.2798 25.627 28.3497 26.7681 28.0314 27.8306C27.9112 28.2086 27.7444 28.5701 27.5348 28.9069L25.4001 32.2388Z" fill="#1E293B"/>
<path d="M30.541 23.6991C30.2353 22.9387 29.7573 22.6531 29.8427 22.2248C29.897 21.9641 30.1228 21.8004 30.2508 21.7072C30.8879 21.2417 31.7251 21.5272 33.4105 21.8446C35.5002 22.2388 35.7384 22.3008 36.1334 22.1449C37.1359 21.7484 37.7062 20.5154 37.7497 19.4996C37.7621 19.2149 37.7877 17.7033 36.5043 16.9235C35.5785 16.3609 34.3386 16.4028 33.336 17.0274C33.2484 16.7334 33.0668 16.3206 32.6687 16.1173C31.7244 15.6346 30.316 16.7171 29.8233 17.0957C29.0204 17.7195 28.3848 18.5326 27.9734 19.4624C27.7872 19.3584 27.0896 18.9968 26.3291 19.2397C25.1978 19.6013 24.92 20.9833 24.896 21.1144C24.6135 22.6415 25.8682 23.9746 26.8164 24.981C27.3387 25.535 27.6126 25.7469 27.9199 25.9517C28.009 26.0108 28.1126 26.0444 28.2194 26.0488C28.3262 26.0532 28.4322 26.0282 28.5259 25.9765L28.5367 25.9703C28.5962 25.9374 28.6483 25.8928 28.69 25.8391C28.7317 25.7854 28.762 25.7239 28.7791 25.6581C28.7962 25.5924 28.7998 25.5238 28.7896 25.4566C28.7794 25.3895 28.7557 25.325 28.7199 25.2673L28.6725 25.1897C28.4884 24.899 28.3714 24.5708 28.3303 24.2291C28.3001 23.9567 28.3218 23.6704 28.4964 23.5237C28.7796 23.2863 29.2599 23.4462 29.329 23.4656C29.6366 23.5736 29.8909 23.7958 30.039 24.0863C30.1888 24.3532 30.6768 24.0359 30.541 23.6991Z" fill="#1E293B"/>
<path d="M14.2861 17.7925C14.0916 17.7932 13.8992 17.753 13.7212 17.6745C13.5433 17.5959 13.3839 17.4809 13.2533 17.3367C13.1228 17.1925 13.024 17.0225 12.9635 16.8377C12.9029 16.6529 12.8819 16.4574 12.9018 16.2639C12.9206 16.088 12.9746 15.9176 13.0606 15.763C13.1466 15.6084 13.2628 15.4726 13.4023 15.3638C13.5442 15.252 13.7071 15.1699 13.8813 15.1223C14.0555 15.0748 14.2375 15.0627 14.4165 15.0868C14.776 15.1323 15.1034 15.3167 15.3287 15.6004C15.5541 15.8842 15.6594 16.2449 15.6223 16.6053C15.603 16.7812 15.5486 16.9514 15.4624 17.1058C15.3761 17.2603 15.2598 17.3959 15.1203 17.5047C14.8824 17.6915 14.5886 17.7929 14.2861 17.7925ZM13.244 16.3019C13.2168 16.5724 13.2965 16.8428 13.4659 17.0554C13.6354 17.268 13.8813 17.4058 14.1511 17.4395C14.2847 17.4574 14.4206 17.4484 14.5507 17.413C14.6808 17.3775 14.8024 17.3164 14.9084 17.2331C15.0117 17.1526 15.0977 17.0522 15.1614 16.9378C15.2251 16.8234 15.2652 16.6975 15.2794 16.5673C15.3066 16.2969 15.2269 16.0266 15.0574 15.8141C14.8879 15.6017 14.642 15.464 14.3723 15.4305C14.2387 15.4125 14.1029 15.4214 13.9728 15.4567C13.8427 15.492 13.721 15.553 13.6149 15.6362C13.5118 15.7168 13.4259 15.8172 13.3622 15.9316C13.2985 16.0459 13.2583 16.1718 13.244 16.3019Z" fill="#1E293B"/>
<path d="M9.08032 20.33C9.04945 20.3301 9.01913 20.3217 8.99263 20.3059L7.84267 19.6254C7.80326 19.6021 7.7747 19.5642 7.76328 19.5199C7.75185 19.4756 7.7585 19.4285 7.78176 19.3891C7.80501 19.3497 7.84297 19.3211 7.88728 19.3097C7.93159 19.2983 7.97862 19.3049 8.01803 19.3282L9.168 20.0087C9.20027 20.0282 9.22532 20.0576 9.23933 20.0926C9.25334 20.1276 9.25555 20.1661 9.24563 20.2025C9.23571 20.2388 9.2142 20.271 9.18436 20.294C9.15452 20.317 9.11799 20.3296 9.08032 20.33Z" fill="#1E293B"/>
<path d="M11.76 21.916C11.7291 21.9161 11.6988 21.9078 11.6723 21.892L10.5224 21.2115C10.5028 21.1999 10.4858 21.1847 10.4722 21.1666C10.4585 21.1485 10.4486 21.1279 10.443 21.1059C10.4373 21.084 10.436 21.0611 10.4392 21.0387C10.4424 21.0163 10.4499 20.9947 10.4614 20.9752C10.473 20.9557 10.4882 20.9386 10.5063 20.925C10.5244 20.9114 10.545 20.9014 10.567 20.8958C10.5889 20.8901 10.6117 20.8888 10.6342 20.892C10.6566 20.8952 10.6782 20.9027 10.6977 20.9143L11.8477 21.5955C11.8863 21.6187 11.9143 21.656 11.9256 21.6996C11.9369 21.7431 11.9307 21.7894 11.9082 21.8283C11.8933 21.8546 11.8718 21.8765 11.8458 21.8919C11.8198 21.9073 11.7902 21.9156 11.76 21.916Z" fill="#1E293B"/>
<path d="M8.71367 22.6983C8.68317 22.6984 8.6532 22.6904 8.62682 22.6751C8.60044 22.6597 8.57859 22.6377 8.56352 22.6112C8.54845 22.5847 8.54069 22.5546 8.54103 22.5241C8.54137 22.4936 8.5498 22.4638 8.56546 22.4376L9.24598 21.2876C9.25717 21.2675 9.27227 21.2499 9.29039 21.2357C9.30851 21.2215 9.32928 21.2111 9.35149 21.2051C9.37369 21.1991 9.39687 21.1976 9.41967 21.2007C9.44246 21.2038 9.4644 21.2114 9.4842 21.2232C9.504 21.2349 9.52125 21.2504 9.53494 21.2689C9.54862 21.2874 9.55847 21.3084 9.56389 21.3308C9.56932 21.3532 9.57021 21.3764 9.56652 21.3991C9.56282 21.4218 9.55462 21.4435 9.54239 21.463L8.86265 22.6137C8.84724 22.6395 8.82542 22.6608 8.79931 22.6757C8.7732 22.6905 8.74369 22.6983 8.71367 22.6983Z" fill="#1E293B"/>
<path d="M10.2984 20.0198C10.2675 20.0199 10.2372 20.0116 10.2107 19.9957C10.1721 19.9726 10.1441 19.9353 10.1326 19.8918C10.1212 19.8483 10.1272 19.8021 10.1494 19.763L10.8299 18.613C10.8414 18.5935 10.8567 18.5764 10.8748 18.5628C10.8929 18.5492 10.9135 18.5393 10.9354 18.5336C10.9574 18.5279 10.9802 18.5267 11.0026 18.5298C11.0251 18.533 11.0467 18.5406 11.0662 18.5521C11.0857 18.5636 11.1028 18.5788 11.1164 18.5969C11.13 18.6151 11.1399 18.6357 11.1456 18.6576C11.1512 18.6795 11.1525 18.7024 11.1493 18.7248C11.1462 18.7473 11.1386 18.7688 11.1271 18.7884L10.4466 19.9383C10.431 19.9635 10.4091 19.9842 10.3832 19.9985C10.3572 20.0128 10.328 20.0201 10.2984 20.0198Z" fill="#1E293B"/>
<path d="M129.738 141.828H69.4457C68.5973 141.827 67.7595 141.638 66.9932 141.274C66.2269 140.91 65.5513 140.379 65.0154 139.722C64.4795 139.064 64.0967 138.295 63.8947 137.471C63.6928 136.647 63.6768 135.788 63.848 134.957L72.9949 90.4702C73.3676 88.6557 74.3551 87.0254 75.7906 85.8545C77.226 84.6837 79.0216 84.0441 80.874 84.0438H132.592L129.738 141.828Z" fill="white"/>
<path d="M129.74 142H69.4485C68.5744 142 67.7114 141.805 66.9219 141.43C66.1325 141.055 65.4365 140.508 64.8843 139.831C64.3322 139.153 63.9378 138.361 63.7298 137.512C63.5218 136.663 63.5053 135.779 63.6816 134.923L72.8294 90.4355C73.215 88.5846 74.225 86.9226 75.69 85.7276C77.1551 84.5327 78.9862 83.8774 80.8768 83.8716H132.595C132.618 83.8716 132.642 83.8763 132.663 83.8855C132.684 83.8947 132.704 83.9082 132.72 83.9251C132.736 83.942 132.749 83.962 132.757 83.9839C132.765 84.0058 132.768 84.0291 132.767 84.0524L129.916 141.836C129.913 141.881 129.894 141.923 129.861 141.954C129.828 141.984 129.785 142.001 129.74 142ZM80.8737 84.2162C79.063 84.2218 77.3091 84.8492 75.9056 85.9933C74.5021 87.1375 73.5342 88.7289 73.1638 90.5014L64.016 134.989C63.8502 135.795 63.8659 136.628 64.062 137.428C64.258 138.227 64.6296 138.973 65.1496 139.611C65.6696 140.249 66.3251 140.763 67.0686 141.116C67.812 141.469 68.6247 141.652 69.4477 141.652H129.574L132.41 84.2131L80.8737 84.2162Z" fill="#1E293B"/>
<path d="M137.46 141.828H125.759C124.91 141.827 124.073 141.638 123.306 141.274C122.54 140.91 121.864 140.38 121.328 139.722C120.792 139.064 120.409 138.295 120.207 137.471C120.005 136.647 119.989 135.788 120.16 134.957L130.235 85.9573C130.347 85.417 130.641 84.9317 131.068 84.5831C131.496 84.2345 132.03 84.044 132.582 84.0438H135.591C136.193 84.0439 136.773 84.2705 137.215 84.6786C137.657 85.0866 137.93 85.6461 137.979 86.2459L142.1 136.791C142.152 137.432 142.072 138.078 141.862 138.686C141.653 139.295 141.32 139.853 140.884 140.326C140.448 140.8 139.918 141.178 139.329 141.436C138.74 141.694 138.103 141.828 137.46 141.828Z" fill="white"/>
<path d="M137.46 142H125.759C124.885 142 124.022 141.805 123.232 141.43C122.443 141.054 121.747 140.508 121.195 139.831C120.643 139.153 120.249 138.361 120.04 137.512C119.832 136.663 119.816 135.779 119.992 134.923L130.068 85.9233C130.188 85.3449 130.504 84.8255 130.962 84.452C131.42 84.0785 131.992 83.8736 132.583 83.8716H135.592C136.236 83.8747 136.856 84.1184 137.33 84.555C137.803 84.9916 138.097 85.5895 138.152 86.2313L142.274 136.777C142.329 137.442 142.244 138.111 142.027 138.742C141.81 139.373 141.465 139.952 141.013 140.442C140.561 140.933 140.012 141.325 139.401 141.593C138.79 141.861 138.131 142 137.463 142H137.46ZM132.583 84.2162C132.071 84.218 131.576 84.3954 131.179 84.7187C130.783 85.042 130.51 85.4916 130.405 85.9923L120.33 134.992C120.164 135.799 120.18 136.632 120.376 137.431C120.572 138.23 120.943 138.976 121.463 139.614C121.984 140.252 122.639 140.766 123.383 141.119C124.126 141.472 124.939 141.656 125.762 141.656H137.463C138.083 141.658 138.697 141.531 139.264 141.282C139.832 141.033 140.341 140.668 140.759 140.211C141.178 139.754 141.499 139.216 141.701 138.63C141.903 138.044 141.982 137.423 141.932 136.805L137.81 86.26C137.762 85.7044 137.509 85.1867 137.099 84.8086C136.689 84.4305 136.153 84.2191 135.595 84.2162H132.583Z" fill="#1E293B"/>
<path d="M133.728 140.261H125.756C125.14 140.261 124.532 140.123 123.976 139.859C123.42 139.594 122.929 139.209 122.54 138.732C122.151 138.254 121.873 137.696 121.727 137.098C121.58 136.5 121.568 135.876 121.693 135.273L125 119.187C125.009 119.142 125.035 119.103 125.074 119.078C125.112 119.052 125.158 119.043 125.203 119.053C125.248 119.062 125.287 119.088 125.312 119.126C125.337 119.164 125.346 119.211 125.337 119.256L122.03 135.341C121.916 135.894 121.926 136.465 122.06 137.014C122.194 137.563 122.448 138.075 122.805 138.513C123.162 138.951 123.612 139.304 124.122 139.546C124.632 139.789 125.19 139.914 125.755 139.914H133.727C133.771 139.917 133.812 139.936 133.842 139.969C133.872 140.001 133.888 140.043 133.888 140.087C133.888 140.131 133.872 140.173 133.842 140.205C133.812 140.237 133.771 140.256 133.727 140.259L133.728 140.261Z" fill="#1E293B"/>
<path d="M137.46 140.261C137.436 140.263 137.413 140.259 137.39 140.251C137.368 140.243 137.348 140.231 137.33 140.215C137.313 140.199 137.299 140.179 137.29 140.157C137.28 140.135 137.275 140.112 137.275 140.088C137.275 140.065 137.28 140.041 137.29 140.019C137.299 139.998 137.313 139.978 137.33 139.962C137.348 139.946 137.368 139.933 137.39 139.925C137.413 139.917 137.436 139.914 137.46 139.916C137.839 139.916 138.215 139.837 138.562 139.685C138.91 139.532 139.222 139.31 139.479 139.031C139.736 138.752 139.932 138.422 140.056 138.063C140.179 137.705 140.227 137.324 140.196 136.946L139.256 125.427C139.253 125.381 139.267 125.336 139.297 125.301C139.326 125.267 139.369 125.245 139.414 125.241C139.46 125.237 139.505 125.252 139.54 125.282C139.575 125.311 139.596 125.353 139.6 125.399L140.54 136.918C140.575 137.344 140.521 137.772 140.382 138.176C140.243 138.58 140.022 138.95 139.732 139.264C139.443 139.578 139.092 139.829 138.7 140.001C138.309 140.172 137.887 140.261 137.46 140.261Z" fill="#1E293B"/>
<path d="M136.815 93.5299C136.772 93.53 136.731 93.5141 136.699 93.4854C136.667 93.4567 136.648 93.4173 136.643 93.3748L136.448 90.9739C136.444 90.9284 136.459 90.8832 136.488 90.8483C136.518 90.8135 136.56 90.7918 136.606 90.7881C136.651 90.7844 136.697 90.799 136.731 90.8286C136.766 90.8582 136.788 90.9004 136.792 90.946L136.987 93.3468C136.991 93.3919 136.977 93.4367 136.948 93.4714C136.918 93.5061 136.877 93.5279 136.832 93.5323L136.815 93.5299Z" fill="#1E293B"/>
<path d="M129.175 99.9174C129.163 99.9186 129.151 99.9186 129.14 99.9174C129.095 99.9081 129.056 99.8814 129.03 99.8431C129.005 99.8049 128.996 99.7582 129.005 99.7134L131.769 86.2761C131.808 86.0893 131.91 85.9215 132.057 85.8009C132.205 85.6802 132.39 85.6141 132.581 85.6135H135.59C135.798 85.6146 135.998 85.6935 136.151 85.8346C136.304 85.9758 136.399 86.1689 136.417 86.3762L136.545 87.9483C136.547 87.9709 136.545 87.9936 136.538 88.0152C136.531 88.0367 136.52 88.0567 136.505 88.0739C136.49 88.0912 136.472 88.1054 136.452 88.1157C136.432 88.1261 136.41 88.1323 136.388 88.1342C136.365 88.136 136.342 88.1334 136.321 88.1264C136.299 88.1195 136.279 88.1084 136.262 88.0937C136.245 88.079 136.23 88.0611 136.22 88.041C136.21 88.0208 136.204 87.9988 136.202 87.9763L136.073 86.4042C136.063 86.2831 136.007 86.1702 135.918 86.0877C135.829 86.0053 135.712 85.9593 135.59 85.9588H132.581C132.469 85.9593 132.361 85.9981 132.275 86.0687C132.189 86.1393 132.129 86.2375 132.106 86.3467L129.344 99.784C129.335 99.8221 129.313 99.856 129.283 99.8803C129.252 99.9045 129.214 99.9176 129.175 99.9174Z" fill="#1E293B"/>
<path d="M121.525 107.569H74.3157C74.272 107.566 74.2309 107.547 74.2009 107.515C74.171 107.483 74.1543 107.441 74.1543 107.397C74.1543 107.353 74.171 107.311 74.2009 107.278C74.2309 107.246 74.272 107.227 74.3157 107.224H121.525C122.166 107.226 122.79 107.01 123.293 106.612C123.796 106.214 124.149 105.657 124.295 105.033L128.457 87.4573C128.469 87.4148 128.497 87.3787 128.535 87.3562C128.573 87.3338 128.618 87.3269 128.661 87.3368C128.704 87.3468 128.742 87.3729 128.766 87.4098C128.79 87.4466 128.8 87.4914 128.792 87.5349L124.63 105.111C124.467 105.812 124.071 106.436 123.507 106.882C122.943 107.329 122.244 107.571 121.525 107.569Z" fill="#1E293B"/>
<path d="M103.302 107.397L101.983 112.733C101.879 113.172 101.631 113.562 101.277 113.842C100.924 114.121 100.487 114.273 100.036 114.273H90.6857C90.4483 114.273 90.2142 114.218 90.0016 114.113C89.7889 114.007 89.6036 113.854 89.46 113.665C89.3164 113.476 89.2185 113.256 89.1739 113.023C89.1293 112.79 89.1392 112.55 89.2029 112.321L90.5724 107.397H103.302Z" fill="white"/>
<path d="M100.035 114.447H90.6845C90.4204 114.447 90.1599 114.385 89.9234 114.268C89.6869 114.15 89.4807 113.98 89.321 113.77C89.1614 113.559 89.0525 113.315 89.003 113.055C88.9535 112.796 88.9647 112.528 89.0356 112.274L90.4052 107.349C90.4153 107.313 90.437 107.281 90.467 107.258C90.497 107.235 90.5336 107.223 90.5713 107.223H103.304C103.33 107.223 103.356 107.229 103.379 107.24C103.403 107.252 103.424 107.268 103.44 107.289C103.456 107.31 103.467 107.334 103.473 107.359C103.478 107.385 103.478 107.411 103.472 107.437L102.152 112.774C102.041 113.251 101.771 113.677 101.386 113.98C101.001 114.284 100.525 114.449 100.035 114.447ZM90.7024 107.569L89.3677 112.368C89.3112 112.571 89.3025 112.785 89.3423 112.992C89.3821 113.199 89.4692 113.394 89.597 113.562C89.7247 113.73 89.8896 113.866 90.0787 113.96C90.2678 114.053 90.4759 114.102 90.6869 114.101H100.037C100.449 114.102 100.849 113.964 101.172 113.708C101.496 113.453 101.723 113.095 101.816 112.694L103.086 107.573L90.7024 107.569Z" fill="#1E293B"/>
<path d="M117.215 137.53H67.0629C67.0172 137.53 66.9734 137.512 66.9411 137.48C66.9088 137.448 66.8906 137.404 66.8906 137.358C66.8906 137.312 66.9088 137.269 66.9411 137.236C66.9734 137.204 67.0172 137.186 67.0629 137.186H117.215C117.261 137.186 117.305 137.204 117.337 137.236C117.369 137.269 117.388 137.312 117.388 137.358C117.388 137.404 117.369 137.448 117.337 137.48C117.305 137.512 117.261 137.53 117.215 137.53Z" fill="#1E293B"/>
<path d="M92.7868 82.0247H88.8721C88.3641 82.0249 87.877 82.2269 87.5179 82.5861C87.1588 82.9454 86.957 83.4326 86.957 83.9406H94.7018C94.7018 83.4326 94.5001 82.9454 94.141 82.5861C93.7819 82.2269 93.2948 82.0249 92.7868 82.0247Z" fill="white"/>
<path d="M94.7022 84.1137H86.9574C86.9348 84.1138 86.9123 84.1094 86.8914 84.1008C86.8704 84.0922 86.8514 84.0795 86.8354 84.0635C86.8194 84.0475 86.8067 84.0284 86.7981 84.0075C86.7894 83.9865 86.7851 83.9641 86.7852 83.9414C86.7858 83.388 87.0059 82.8573 87.3972 82.4659C87.7884 82.0744 88.319 81.8542 88.8725 81.8533H92.7872C93.3407 81.8542 93.8712 82.0744 94.2625 82.4659C94.6538 82.8573 94.8739 83.388 94.8745 83.9414C94.8746 83.9641 94.8702 83.9865 94.8616 84.0075C94.853 84.0284 94.8403 84.0475 94.8243 84.0635C94.8083 84.0795 94.7892 84.0922 94.7683 84.1008C94.7473 84.1094 94.7249 84.1138 94.7022 84.1137ZM87.1382 83.7692H94.5214C94.4782 83.339 94.2769 82.9402 93.9565 82.6499C93.6362 82.3597 93.2195 82.1986 92.7872 82.1979H88.8725C88.4403 82.1986 88.0237 82.3595 87.7033 82.6496C87.383 82.9398 87.1816 83.3384 87.1382 83.7684V83.7692Z" fill="#1E293B"/>
<path d="M124.162 82.0247H120.247C119.739 82.0249 119.252 82.2269 118.893 82.5861C118.534 82.9454 118.332 83.4326 118.332 83.9406H126.077C126.077 83.4326 125.875 82.9454 125.516 82.5861C125.157 82.2269 124.67 82.0249 124.162 82.0247Z" fill="#1E293B"/>
<path d="M126.075 84.1137H118.33C118.308 84.1137 118.285 84.1092 118.265 84.1006C118.244 84.0919 118.225 84.0792 118.209 84.0632C118.193 84.0472 118.18 84.0282 118.171 84.0073C118.163 83.9864 118.158 83.9641 118.158 83.9414C118.159 83.388 118.379 82.8573 118.77 82.4659C119.161 82.0744 119.692 81.8542 120.246 81.8533H124.16C124.714 81.8539 125.245 82.0741 125.636 82.4656C126.028 82.8571 126.248 83.3878 126.248 83.9414C126.248 83.9641 126.244 83.9866 126.235 84.0075C126.226 84.0285 126.214 84.0475 126.198 84.0635C126.182 84.0795 126.162 84.0922 126.141 84.1008C126.12 84.1094 126.098 84.1138 126.075 84.1137ZM118.511 83.7692H125.894C125.851 83.339 125.65 82.94 125.33 82.6497C125.009 82.3594 124.593 82.1984 124.16 82.1979H120.246C119.813 82.1986 119.397 82.3595 119.076 82.6496C118.756 82.9398 118.555 83.3384 118.511 83.7684V83.7692Z" fill="#1E293B"/>
<path d="M123.139 81.9217L123.77 78.173C124.218 75.5146 122.426 73.3621 119.769 73.3621H96.2937C93.636 73.3621 91.1188 75.5177 90.6719 78.173L90.041 81.9217H91.8374L92.3285 79.0041C92.6769 76.9346 94.6355 75.257 96.7042 75.257H118.72C120.788 75.257 122.183 76.9346 121.834 79.0041L121.343 81.9217H123.139Z" fill="white"/>
<path d="M123.14 82.0961H121.344C121.319 82.096 121.294 82.0905 121.271 82.0801C121.248 82.0696 121.228 82.0545 121.212 82.0356C121.196 82.0163 121.184 81.9938 121.177 81.9696C121.171 81.9453 121.169 81.9199 121.174 81.8951L121.665 78.9775C121.826 78.0177 121.603 77.1199 121.036 76.4495C120.481 75.793 119.659 75.4322 118.72 75.4322H96.7047C94.7198 75.4322 92.8334 77.0485 92.499 79.035L92.0078 81.9526C92.0012 81.9928 91.9804 82.0293 91.9493 82.0556C91.9182 82.0819 91.8787 82.0963 91.8379 82.0961H90.0416C90.0165 82.096 89.9918 82.0905 89.9691 82.0801C89.9463 82.0696 89.9261 82.0545 89.9096 82.0356C89.8935 82.0163 89.8817 81.9938 89.8752 81.9696C89.8686 81.9453 89.8674 81.9199 89.8716 81.8951L90.5025 78.1465C90.9626 75.4128 93.5605 73.1889 96.2942 73.1889H119.769C121.093 73.1889 122.257 73.7026 123.045 74.6353C123.85 75.5866 124.168 76.8537 123.942 78.2047L123.311 81.9533C123.304 81.9935 123.283 82.0298 123.251 82.056C123.22 82.0821 123.181 82.0963 123.14 82.0961ZM121.548 81.7516H122.995L123.601 78.1465C123.811 76.898 123.523 75.7302 122.782 74.858C122.06 74.0044 120.99 73.5334 119.769 73.5334H96.2942C93.7211 73.5334 91.2761 75.6285 90.8423 78.2039L90.2456 81.7516H91.692L92.1576 78.9775C92.5184 76.832 94.5576 75.0869 96.7031 75.0869H118.719C119.761 75.0869 120.676 75.4919 121.298 76.2268C121.931 76.9756 122.182 77.9727 122.003 79.035L121.548 81.7516Z" fill="#1E293B"/>
<path d="M118.603 71.807H97.9815C97.1505 71.807 96.3629 72.4805 96.2232 73.3124L95.9198 75.1126C95.7801 75.9436 96.3404 76.6179 97.1714 76.6179H117.792C118.623 76.6179 119.41 75.9436 119.551 75.1126L119.853 73.3108C119.994 72.4805 119.434 71.807 118.603 71.807Z" fill="white"/>
<path d="M117.794 76.7916H97.1726C96.9618 76.7966 96.7525 76.7549 96.5597 76.6694C96.367 76.5839 96.1955 76.4569 96.0576 76.2974C95.9196 76.1308 95.8202 75.9357 95.7665 75.7261C95.7128 75.5166 95.7062 75.2977 95.7472 75.0853L96.0506 73.2835C96.2058 72.3741 97.0686 71.6339 97.9788 71.6339H118.6C118.811 71.6291 119.02 71.6709 119.213 71.7563C119.405 71.8418 119.577 71.9687 119.715 72.1281C119.853 72.2948 119.952 72.4899 120.006 72.6994C120.059 72.909 120.066 73.1278 120.025 73.3402L119.722 75.1427C119.569 76.0521 118.704 76.7916 117.794 76.7916ZM97.9827 71.9807C97.2332 71.9807 96.5208 72.5914 96.3943 73.3417L96.0909 75.1443C96.0589 75.3071 96.0631 75.4749 96.1034 75.6358C96.1436 75.7968 96.2189 75.9469 96.3237 76.0754C96.4295 76.1969 96.561 76.2933 96.7086 76.3578C96.8562 76.4222 97.0163 76.453 97.1773 76.4479H117.798C118.548 76.4479 119.26 75.8372 119.386 75.0861L119.689 73.2843C119.721 73.1215 119.717 72.9537 119.677 72.7927C119.637 72.6318 119.561 72.4817 119.457 72.3532C119.351 72.2318 119.219 72.1355 119.072 72.0713C118.924 72.007 118.764 71.9763 118.603 71.9815L97.9827 71.9807Z" fill="#1E293B"/>
<path d="M105.97 76.7919H97.1726C96.9618 76.7969 96.7525 76.7552 96.5597 76.6697C96.367 76.5842 96.1955 76.4572 96.0576 76.2976C95.9196 76.1311 95.8202 75.936 95.7665 75.7264C95.7128 75.5169 95.7062 75.298 95.7472 75.0856L96.0506 73.2838C96.2058 72.3744 97.0686 71.6342 97.9788 71.6342H104.857C104.901 71.6371 104.942 71.6566 104.972 71.6886C105.002 71.7207 105.018 71.7629 105.018 71.8068C105.018 71.8507 105.002 71.8929 104.972 71.925C104.942 71.9571 104.901 71.9765 104.857 71.9795H97.9788C97.2293 71.9795 96.5169 72.5901 96.3905 73.3405L96.0871 75.143C96.055 75.3058 96.0593 75.4736 96.0995 75.6346C96.1397 75.7955 96.215 75.9456 96.3199 76.0742C96.4256 76.1957 96.5571 76.2921 96.7047 76.3565C96.8523 76.4209 97.0124 76.4517 97.1734 76.4466H105.971C106.017 76.4466 106.061 76.4648 106.093 76.4971C106.125 76.5294 106.143 76.5732 106.143 76.6189C106.143 76.6646 106.125 76.7084 106.093 76.7407C106.061 76.773 106.017 76.7912 105.971 76.7912L105.97 76.7919Z" fill="#1E293B"/>
<path d="M125.649 137.531C125.611 137.531 125.574 137.518 125.544 137.495C125.514 137.472 125.492 137.439 125.482 137.402C125.473 137.366 125.475 137.327 125.49 137.292C125.505 137.257 125.531 137.227 125.564 137.209L133.556 132.651V87.497C133.556 87.4513 133.574 87.4075 133.607 87.3752C133.639 87.3429 133.683 87.3247 133.728 87.3247C133.774 87.3247 133.818 87.3429 133.85 87.3752C133.882 87.4075 133.901 87.4513 133.901 87.497V132.751C133.901 132.781 133.893 132.811 133.878 132.837C133.862 132.864 133.84 132.886 133.814 132.9L125.731 137.508C125.706 137.522 125.678 137.53 125.649 137.531Z" fill="#1E293B"/>
<path d="M125.332 82.9147C125.332 82.9147 128.93 84.2555 130.341 83.1265C131.752 81.9975 128.154 80.0917 127.308 80.233C126.461 80.3742 125.332 82.9147 125.332 82.9147Z" fill="#1E293B"/>
<path d="M107.254 111.688L110.639 117.616L112.474 115.076L109.511 109.289L107.254 111.688Z" fill="white"/>
<path d="M110.64 117.79H110.631C110.602 117.789 110.574 117.78 110.55 117.765C110.525 117.749 110.505 117.728 110.49 117.703L107.105 111.775C107.086 111.743 107.079 111.706 107.083 111.669C107.088 111.633 107.104 111.598 107.129 111.572L109.386 109.172C109.405 109.152 109.428 109.137 109.454 109.128C109.481 109.118 109.508 109.116 109.536 109.12C109.563 109.123 109.589 109.134 109.612 109.15C109.634 109.166 109.652 109.187 109.665 109.212L112.628 114.998C112.643 115.027 112.649 115.058 112.646 115.09C112.644 115.122 112.633 115.152 112.614 115.178L110.78 117.719C110.764 117.741 110.743 117.759 110.719 117.771C110.694 117.784 110.667 117.79 110.64 117.79ZM107.467 111.715L110.657 117.302L112.273 115.064L109.469 109.589L107.467 111.715Z" fill="#1E293B"/>
<path d="M109.467 116.712C110.36 118.554 112.619 123.02 114.797 125.161C114.918 125.28 115.068 125.366 115.233 125.409C115.397 125.452 115.57 125.451 115.734 125.406C115.898 125.362 116.047 125.275 116.167 125.154C116.287 125.034 116.373 124.884 116.417 124.72C117.098 122.142 117.552 116.769 115.012 112.538C115.012 112.538 113.805 112.396 111.548 112.819L112.05 114.937L111.773 114.738C111.57 114.593 111.325 114.521 111.076 114.532C110.827 114.543 110.589 114.637 110.4 114.799L109.749 115.357C109.559 115.52 109.428 115.742 109.377 115.987C109.326 116.232 109.358 116.487 109.467 116.712Z" fill="#2563EB"/>
<path d="M115.156 124.563C115.135 124.563 115.115 124.56 115.095 124.552C115.053 124.536 115.018 124.503 114.999 124.462C114.98 124.42 114.978 124.373 114.994 124.33C116.923 119.232 114.319 113.229 114.296 113.169C114.278 113.127 114.276 113.08 114.293 113.037C114.309 112.995 114.342 112.96 114.384 112.942C114.425 112.923 114.473 112.922 114.516 112.939C114.558 112.955 114.593 112.988 114.611 113.029C114.638 113.091 117.297 119.224 115.32 124.452C115.308 124.486 115.285 124.514 115.256 124.534C115.226 124.554 115.191 124.564 115.156 124.563Z" fill="white"/>
<path d="M110.781 119.452C110.744 119.452 110.708 119.44 110.678 119.417C110.649 119.395 110.627 119.364 110.616 119.328C110.606 119.293 110.607 119.255 110.62 119.22C110.633 119.185 110.656 119.155 110.687 119.135L112.38 118.036C112.399 118.024 112.42 118.015 112.443 118.011C112.465 118.007 112.488 118.007 112.51 118.012C112.532 118.017 112.553 118.026 112.572 118.039C112.59 118.051 112.606 118.068 112.619 118.087C112.631 118.106 112.64 118.127 112.644 118.149C112.648 118.172 112.647 118.195 112.643 118.217C112.638 118.239 112.629 118.26 112.616 118.279C112.603 118.297 112.587 118.313 112.568 118.325L110.873 119.424C110.846 119.442 110.814 119.452 110.781 119.452Z" fill="white"/>
<path d="M111.627 120.956C111.591 120.956 111.555 120.945 111.526 120.924C111.496 120.903 111.474 120.873 111.462 120.839C111.451 120.804 111.45 120.767 111.461 120.732C111.472 120.698 111.493 120.667 111.522 120.646L113.074 119.454C113.092 119.44 113.113 119.43 113.135 119.424C113.157 119.418 113.179 119.417 113.202 119.42C113.224 119.423 113.246 119.43 113.266 119.442C113.285 119.453 113.302 119.468 113.316 119.486C113.33 119.504 113.34 119.525 113.346 119.546C113.352 119.568 113.353 119.591 113.35 119.614C113.347 119.636 113.34 119.658 113.328 119.677C113.317 119.697 113.302 119.714 113.284 119.728L111.732 120.919C111.702 120.943 111.665 120.956 111.627 120.956Z" fill="white"/>
<path d="M96.5316 111.829C96.5316 111.97 93.4277 118.745 93.4277 118.745L96.9545 119.028L99.3529 113.241L96.5316 111.829Z" fill="white"/>
<path d="M96.9531 119.2H96.9391L93.4124 118.918C93.3848 118.915 93.3581 118.906 93.3346 118.892C93.3111 118.877 93.2916 118.857 93.2776 118.833C93.2635 118.809 93.2555 118.782 93.2541 118.754C93.2527 118.727 93.2581 118.699 93.2697 118.674C94.4677 116.059 96.2718 112.087 96.3603 111.8C96.3648 111.774 96.3755 111.749 96.3915 111.727C96.4075 111.706 96.4283 111.688 96.4522 111.676C96.4762 111.664 96.5027 111.657 96.5296 111.657C96.5565 111.657 96.583 111.663 96.607 111.675L99.4284 113.087C99.4676 113.106 99.498 113.14 99.5133 113.181C99.5286 113.222 99.5276 113.267 99.5107 113.307L97.1122 119.094C97.099 119.126 97.0769 119.152 97.0486 119.171C97.0203 119.19 96.9871 119.2 96.9531 119.2ZM93.6856 118.593L96.8421 118.845L99.1304 113.323L96.6202 112.067C96.4301 112.538 95.7962 113.988 93.6856 118.593Z" fill="#1E293B"/>
<path d="M96.6732 117.334C96.6732 117.334 95.9678 115.64 94.1342 116.487C94.1342 116.487 90.7674 121.353 89.5157 125.37C89.1619 126.506 90.3282 127.529 91.4122 127.04C93.9495 125.893 97.9255 123.488 100.201 119.028C100.201 119.028 99.4953 117.193 98.3663 116.346L96.6732 117.334Z" fill="#2563EB"/>
<path d="M90.5491 125.987C90.4651 125.988 90.3811 125.984 90.2977 125.973C90.2525 125.967 90.2117 125.942 90.1844 125.906C90.1571 125.869 90.1456 125.823 90.1522 125.778C90.1589 125.732 90.1833 125.692 90.2201 125.664C90.2568 125.637 90.3029 125.625 90.3482 125.632C90.387 125.637 94.1348 126.07 99.2127 119.067C99.2396 119.03 99.28 119.006 99.3252 118.998C99.3704 118.991 99.4166 119.002 99.4536 119.029C99.4907 119.056 99.5155 119.096 99.5227 119.142C99.5299 119.187 99.5189 119.233 99.492 119.27C94.9651 125.515 91.4943 125.987 90.5491 125.987Z" fill="white"/>
<path d="M93.4273 122.164C93.3971 122.164 93.3674 122.156 93.3412 122.141L91.6481 121.152C91.6086 121.129 91.5798 121.091 91.5682 121.047C91.5565 121.003 91.5629 120.956 91.586 120.916C91.609 120.877 91.6468 120.848 91.6911 120.837C91.7353 120.825 91.7824 120.831 91.8219 120.854L93.515 121.843C93.5479 121.862 93.5735 121.891 93.5879 121.927C93.6023 121.962 93.6047 122.001 93.5947 122.037C93.5847 122.074 93.5629 122.106 93.5326 122.129C93.5023 122.152 93.4653 122.164 93.4273 122.164Z" fill="white"/>
<path d="M94.2738 120.894C94.2466 120.893 94.2201 120.886 94.1962 120.873L92.3587 119.885C92.3381 119.875 92.3198 119.861 92.3049 119.843C92.2899 119.826 92.2787 119.805 92.2717 119.783C92.2648 119.761 92.2623 119.738 92.2644 119.715C92.2666 119.692 92.2733 119.67 92.2842 119.65C92.2951 119.63 92.3099 119.612 92.3279 119.597C92.3458 119.583 92.3664 119.572 92.3886 119.566C92.4107 119.559 92.4339 119.558 92.4568 119.56C92.4796 119.563 92.5017 119.571 92.5217 119.582L94.356 120.57C94.3901 120.588 94.417 120.617 94.4327 120.652C94.4483 120.687 94.4516 120.727 94.4421 120.764C94.4326 120.802 94.4109 120.835 94.3804 120.858C94.3499 120.882 94.3123 120.894 94.2738 120.894Z" fill="white"/>
<path d="M114.59 77.6731C114.59 77.6731 105.395 79.3158 98.7679 86.2668C97.9467 87.1292 97.3705 88.1951 97.0986 89.3545C96.8268 90.5139 96.8692 91.7249 97.2214 92.8624C98.6957 97.6136 101.899 106.291 107.254 112.817L111.345 109.289C111.345 109.289 110.358 101.102 107.677 96.0198C104.996 90.9373 120.656 79.9288 120.656 79.9288L114.59 77.6731Z" fill="white"/>
<path d="M107.256 112.99H107.241C107.218 112.988 107.196 112.982 107.175 112.971C107.155 112.96 107.137 112.945 107.122 112.927C101.723 106.346 98.4993 97.5632 97.0591 92.9145C96.6979 91.7475 96.6544 90.5053 96.9332 89.3159C97.212 88.1265 97.803 87.033 98.6451 86.1481C105.235 79.2359 114.469 77.5195 114.562 77.5032C114.592 77.4979 114.623 77.5008 114.652 77.5117L120.719 79.7698C120.748 79.7809 120.774 79.7998 120.793 79.8244C120.812 79.849 120.825 79.8784 120.829 79.9095C120.833 79.9405 120.828 79.9721 120.816 80.0008C120.803 80.0295 120.783 80.0542 120.758 80.0724C120.602 80.1818 105.252 91.0514 107.832 95.9415C110.496 100.992 111.508 109.186 111.518 109.269C111.522 109.297 111.518 109.325 111.508 109.352C111.497 109.378 111.481 109.401 111.459 109.42L107.368 112.949C107.337 112.976 107.297 112.99 107.256 112.99ZM114.577 77.8508C113.869 77.9889 105.167 79.8055 98.895 86.3863C98.0948 87.2264 97.5333 88.2649 97.2685 89.3945C97.0038 90.5241 97.0453 91.7038 97.3889 92.812C98.812 97.4057 101.982 106.051 107.277 112.572L111.164 109.22C111.046 108.309 110.011 100.811 107.527 96.106C104.97 91.2593 118.164 81.5126 120.294 79.9831L114.577 77.8508Z" fill="#1E293B"/>
<path d="M95.4023 113.099L100.199 114.511C100.199 114.511 108.946 96.0214 111.486 93.3389C114.025 90.6564 118.963 86.2823 124.183 84.7258C129.404 83.1692 129.403 79.2211 129.403 79.2211L120.515 76.6807C120.515 76.6807 108.099 82.0441 104.008 88.1128C99.9176 94.1816 95.4023 113.099 95.4023 113.099Z" fill="white"/>
<path d="M100.2 114.686C100.183 114.686 100.167 114.684 100.151 114.679L95.354 113.265C95.3116 113.252 95.2757 113.224 95.2536 113.186C95.2315 113.148 95.2249 113.103 95.2353 113.06C95.2803 112.87 99.8041 94.049 103.866 88.0206C107.938 81.9798 120.323 76.5799 120.447 76.5264C120.483 76.5103 120.524 76.5076 120.562 76.5186L129.451 79.0591C129.487 79.0698 129.518 79.0918 129.54 79.1217C129.562 79.1517 129.574 79.188 129.574 79.2252C129.574 79.2655 129.512 83.3238 124.23 84.8951C118.401 86.6286 113.096 91.8872 111.609 93.4578C109.117 96.089 100.44 114.4 100.357 114.585C100.344 114.615 100.321 114.641 100.294 114.659C100.266 114.677 100.233 114.686 100.2 114.686ZM95.6093 112.979L100.11 114.298C100.963 112.494 108.92 95.7965 111.361 93.2157C112.863 91.6288 118.223 86.3166 124.134 84.5591C128.647 83.2167 129.165 80.0259 129.224 79.3478L120.528 76.8647C119.617 77.2666 108.028 82.4601 104.155 88.2107C100.32 93.8907 96.0585 111.136 95.6093 112.979Z" fill="#1E293B"/>
<path d="M136.599 64.6869C134.2 59.8883 130.251 59.1822 130.251 59.1822L123.478 58.6181C121.361 58.4746 119.11 59.782 118.274 61.7351L112.051 76.261C112.051 76.261 113.321 79.6481 118.964 80.213C124.607 80.7779 128.487 80.4248 130.321 82.6828C131.53 84.1719 131.492 74.242 130.796 66.3878L136.599 64.6869Z" fill="white"/>
<path d="M130.549 83.0056C130.446 83.0056 130.32 82.956 130.187 82.7915C128.812 81.0991 126.158 80.9175 122.485 80.6669C121.422 80.594 120.217 80.5117 118.946 80.3845C113.262 79.8157 111.943 76.4635 111.885 76.3215C111.869 76.2801 111.869 76.2341 111.885 76.1927L118.108 61.6668C118.961 59.6812 121.268 58.2969 123.483 58.4458L130.258 59.0107C130.314 59.0201 134.337 59.7867 136.746 64.61C136.757 64.6326 136.764 64.6573 136.764 64.6826C136.765 64.7078 136.76 64.7328 136.75 64.7559C136.74 64.779 136.725 64.7997 136.706 64.8164C136.687 64.8332 136.665 64.8456 136.641 64.8529L130.976 66.5142C131.463 72.1011 131.864 82.4989 130.67 82.9808C130.632 82.9967 130.59 83.0052 130.549 83.0056ZM112.236 76.261C112.443 76.7119 113.934 79.5363 118.978 80.0415C120.244 80.168 121.446 80.2502 122.506 80.3224C126.266 80.5792 128.983 80.7647 130.452 82.5727C130.515 82.6502 130.549 82.6588 130.549 82.6588C130.565 82.651 131.086 82.3864 131.106 77.1588C131.12 73.9945 130.938 69.9735 130.622 66.4025C130.619 66.3627 130.629 66.3229 130.651 66.2899C130.674 66.2568 130.707 66.2327 130.746 66.2217L136.349 64.5782C134.008 60.0777 130.256 59.3576 130.219 59.3506L123.463 58.788C121.391 58.6476 119.226 59.9434 118.43 61.8011L112.236 76.261Z" fill="#1E293B"/>
<path d="M118.488 77.1961L121.592 75.7847L123.991 76.7724C123.991 76.7724 136.99 75.4696 131.236 66.2598C131.212 66.2194 135.625 64.9725 135.625 64.9725C135.625 64.9725 140.868 77.4786 124.273 77.761C124.273 77.761 123.426 78.0427 122.297 77.4786C121.168 76.9144 119.194 78.0427 118.488 77.1961Z" fill="white"/>
<path d="M123.706 78.0044C123.188 77.9979 122.679 77.8707 122.219 77.6327C121.74 77.3929 121.055 77.4946 120.4 77.5924C119.574 77.7157 118.792 77.8321 118.354 77.306C118.337 77.2856 118.325 77.2616 118.319 77.2358C118.313 77.2101 118.313 77.1833 118.319 77.1575C118.325 77.1317 118.337 77.1077 118.353 77.0871C118.37 77.0666 118.391 77.0502 118.415 77.0391L121.519 75.6277C121.54 75.618 121.564 75.6131 121.588 75.6131C121.611 75.6131 121.635 75.618 121.656 75.6277L124.014 76.5984C124.571 76.5332 130.459 75.7697 132.102 72.4191C132.912 70.7678 132.572 68.7271 131.089 66.3534C131.074 66.3304 131.066 66.3045 131.063 66.2776C131.061 66.2506 131.064 66.2235 131.074 66.1982C131.115 66.0911 131.125 66.0663 135.575 64.8085C135.615 64.7968 135.658 64.8004 135.696 64.8186C135.734 64.8367 135.765 64.8682 135.781 64.907C135.801 64.9567 137.805 69.8476 135.354 73.6024C133.542 76.3788 129.821 77.836 124.296 77.9338C124.103 77.9837 123.905 78.0074 123.706 78.0044ZM121.455 77.1392C121.77 77.1289 122.083 77.1921 122.369 77.3239C123.413 77.8461 124.205 77.5994 124.213 77.597C124.23 77.5916 124.247 77.5885 124.264 77.5877C129.681 77.4962 133.314 76.0909 135.063 73.4123C137.186 70.161 135.817 65.9973 135.515 65.181C134.08 65.5876 132.096 66.1563 131.488 66.3449C132.944 68.7504 133.253 70.8454 132.407 72.5657C130.605 76.2383 124.271 76.9111 124.002 76.9398C123.974 76.943 123.945 76.939 123.919 76.9282L121.591 75.9683L118.807 77.2347C119.165 77.4232 119.738 77.3379 120.346 77.2471C120.714 77.1844 121.086 77.1483 121.459 77.1392H121.455Z" fill="#1E293B"/>
<path d="M106.656 78.3164H118.893L109.822 64.3577C109.679 64.1419 109.484 63.965 109.256 63.8431C109.027 63.7212 108.772 63.6581 108.513 63.6594H98.581C97.9502 63.6594 97.5676 64.3352 97.9044 64.8536L106.656 78.3164Z" fill="#1E293B"/>
<path d="M106.718 69.4007C106.972 69.0109 106.59 68.3125 105.864 67.8407C105.139 67.369 104.345 67.3025 104.092 67.6923C103.838 68.0821 104.221 68.7805 104.946 69.2522C105.671 69.724 106.465 69.7904 106.718 69.4007Z" fill="white"/>
<path d="M106.129 69.8362C105.408 69.8362 104.506 69.3147 104.074 68.6497C103.835 68.2819 103.781 67.9172 103.926 67.6503C104.057 67.409 104.328 67.2755 104.688 67.2755C105.408 67.2755 106.31 67.797 106.743 68.462C106.982 68.8298 107.036 69.1945 106.891 69.4614C106.761 69.6988 106.489 69.8362 106.129 69.8362ZM104.688 67.6208C104.456 67.6208 104.3 67.6899 104.228 67.8148C104.146 67.97 104.195 68.2028 104.362 68.462C104.726 69.0199 105.534 69.4909 106.129 69.4909C106.357 69.4909 106.517 69.4226 106.588 69.2969C106.671 69.1417 106.622 68.9089 106.454 68.6497C106.091 68.0879 105.287 67.6169 104.688 67.6169V67.6208Z" fill="#1E293B"/>
<path d="M126.344 79.3655H107.519C107.28 79.3655 107.05 79.2703 106.88 79.1008C106.711 78.9312 106.615 78.7013 106.615 78.4615V78.2288H127.248V78.4615C127.248 78.5803 127.225 78.6978 127.179 78.8075C127.134 78.9172 127.067 79.0168 126.983 79.1008C126.899 79.1847 126.8 79.2513 126.69 79.2967C126.58 79.3422 126.463 79.3655 126.344 79.3655Z" fill="#1E293B"/>
<path d="M131.521 26.1543C136.701 24.5178 143.401 31.9538 142.051 38.0699C141.679 39.7568 142.091 42.3082 140.242 43.2401C136.964 44.8929 134.902 42.8917 134.06 44.2209C133.33 45.3732 135.923 47.0337 135.612 49.4431C135.147 53.0233 128.723 54.7522 127.994 54.9477C127.451 55.0944 119.781 57.0536 116.143 52.9721C115.267 51.989 114.117 50.0871 114.732 48.879C115.318 47.7267 117.117 47.9742 117.553 46.7614C117.932 45.7115 116.726 45.1233 116.848 43.9384C117.081 41.6548 121.802 41.533 122.35 39.1399C122.789 37.2233 120.048 36.0974 120.516 34.1994C120.894 32.6692 122.867 32.6281 126.018 30.6711C129.792 28.3278 129.558 26.7743 131.521 26.1543Z" fill="#1E293B"/>
<path d="M125.736 58.1969C125.609 58.1341 123.912 56.1306 122.919 54.9503C122.996 54.6229 122.982 54.5181 122.956 54.0192C122.956 54.0192 123.471 53.5039 123.266 52.8335C123.026 52.0576 122.287 52.6783 122.287 52.6783C122.287 52.6783 121.945 52.0801 120.658 53.1121C119.37 54.1441 118.012 52.8886 118.012 52.8886C118.012 52.8886 118.012 53.6646 118.692 54.6004C119.067 55.1187 119.131 55.8031 119.148 56.4425L119.869 56.3393C120.266 56.8095 120.561 57.0376 121.106 57.2658C121.43 57.1867 121.73 57.0328 121.984 56.8165L122.774 58.6167L121.968 59.0396C121.968 59.0396 121.787 60.1694 123.903 60.4511C126.019 60.7327 127.712 59.0396 127.712 59.0396C127.712 59.0396 126.581 58.6183 125.736 58.1969Z" fill="white"/>
<path d="M124.387 60.6573C124.217 60.6572 124.047 60.6461 123.878 60.624C122.977 60.5037 122.354 60.2189 122.026 59.7766C121.853 59.5616 121.77 59.2886 121.793 59.0139C121.797 58.9874 121.807 58.9624 121.823 58.9407C121.839 58.919 121.859 58.9013 121.883 58.8889L122.546 58.5398L121.909 57.0864C121.675 57.2522 121.411 57.3711 121.133 57.4363C121.1 57.4424 121.066 57.4389 121.036 57.4263C120.505 57.2067 120.192 56.9816 119.794 56.5246L119.167 56.6146C119.143 56.6181 119.119 56.6165 119.095 56.6098C119.072 56.6031 119.051 56.5915 119.032 56.5758C119.013 56.5605 118.998 56.5412 118.987 56.5193C118.977 56.4975 118.971 56.4736 118.971 56.4493C118.953 55.8216 118.889 55.176 118.547 54.7026C117.843 53.7296 117.834 52.9242 117.834 52.89C117.834 52.8564 117.843 52.8235 117.862 52.7953C117.88 52.7671 117.906 52.7449 117.937 52.7313C117.968 52.7178 118.002 52.7136 118.035 52.7192C118.068 52.7248 118.099 52.7399 118.123 52.7628C118.175 52.8101 119.391 53.9034 120.544 52.9785C121.157 52.4881 121.661 52.2801 122.044 52.3484C122.135 52.365 122.221 52.4013 122.297 52.4547C122.452 52.3523 122.731 52.2157 122.996 52.2933C123.198 52.3523 123.343 52.5176 123.425 52.7829C123.619 53.4115 123.27 53.9119 123.128 54.0811V54.0881C123.149 54.4831 123.157 54.6313 123.1 54.9013C125.364 57.59 125.753 57.9896 125.816 58.0463C126.643 58.4583 127.756 58.8757 127.763 58.8796C127.79 58.8897 127.814 58.9065 127.833 58.9283C127.852 58.9501 127.865 58.9763 127.871 59.0045C127.877 59.0327 127.876 59.062 127.868 59.0896C127.86 59.1173 127.845 59.1425 127.824 59.1628C127.766 59.2288 126.314 60.6573 124.387 60.6573ZM122.137 59.1473C122.15 59.3059 122.21 59.4569 122.31 59.5811C122.579 59.9349 123.138 60.177 123.924 60.2794C125.518 60.4921 126.884 59.5151 127.384 59.0977C126.996 58.9425 126.255 58.6445 125.658 58.3465C125.601 58.3178 125.481 58.2573 122.787 55.0565C122.77 55.036 122.758 55.0118 122.751 54.9858C122.745 54.9599 122.745 54.9328 122.75 54.9067C122.816 54.6212 122.812 54.5319 122.788 54.1052V54.0276C122.786 54.0035 122.79 53.9793 122.799 53.9567C122.807 53.9341 122.82 53.9136 122.837 53.8964C122.855 53.8786 123.275 53.4425 123.103 52.8877C123.057 52.7395 122.991 52.6549 122.906 52.627C122.747 52.5804 122.497 52.7333 122.4 52.8148C122.381 52.8309 122.358 52.8427 122.334 52.8492C122.31 52.8558 122.284 52.8569 122.259 52.8525C122.234 52.8482 122.211 52.8384 122.19 52.824C122.169 52.8096 122.152 52.7908 122.139 52.769C122.095 52.723 122.035 52.6953 121.971 52.6914C121.816 52.6673 121.448 52.7092 120.768 53.2539C119.789 54.0392 118.767 53.6062 118.248 53.2795C118.362 53.7226 118.562 54.1394 118.834 54.5071C119.194 55.0045 119.287 55.6315 119.316 56.2522L119.847 56.1746C119.876 56.1707 119.905 56.1741 119.932 56.1844C119.959 56.1947 119.983 56.2116 120.002 56.2336C120.38 56.6821 120.648 56.8885 121.122 57.0872C121.398 57.0073 121.655 56.8706 121.875 56.686C121.896 56.6689 121.92 56.6568 121.946 56.6507C121.972 56.6446 121.999 56.6448 122.025 56.6511C122.051 56.6573 122.075 56.6693 122.095 56.6863C122.116 56.7032 122.132 56.7246 122.143 56.7488L122.933 58.5491C122.95 58.589 122.952 58.6341 122.938 58.6753C122.923 58.7165 122.894 58.7507 122.855 58.771L122.137 59.1473Z" fill="#1E293B"/>
<path d="M121.983 56.9903C121.959 56.9902 121.935 56.9851 121.913 56.9753C121.891 56.9656 121.871 56.9514 121.855 56.9336C121.84 56.9168 121.828 56.8971 121.82 56.8757C121.813 56.8544 121.81 56.8317 121.811 56.8091C121.812 56.7864 121.818 56.7643 121.828 56.7438C121.837 56.7234 121.851 56.7051 121.868 56.69L122.101 56.4797C122.135 56.4488 122.18 56.4327 122.225 56.4349C122.271 56.4371 122.314 56.4574 122.345 56.4913C122.376 56.5253 122.392 56.5701 122.39 56.616C122.388 56.6618 122.367 56.7049 122.334 56.7358L122.101 56.946C122.068 56.9751 122.026 56.9909 121.983 56.9903Z" fill="#1E293B"/>
<path d="M53.8882 33.7308L46.3164 51.2651L53.0114 49.0551L56.7049 55.0742L61.2481 36.3434L53.8882 33.7308Z" fill="white"/>
<path d="M56.7039 55.2478C56.6745 55.2477 56.6456 55.24 56.62 55.2256C56.5943 55.2112 56.5727 55.1906 56.5572 55.1656L52.9343 49.2629L46.3689 51.4301C46.3373 51.4406 46.3033 51.4417 46.2711 51.4332C46.2389 51.4248 46.2098 51.4072 46.1874 51.3825C46.165 51.3579 46.1502 51.3273 46.1448 51.2944C46.1395 51.2616 46.1437 51.2278 46.1571 51.1974L53.7289 33.6607C53.7464 33.6206 53.7785 33.5886 53.8187 33.5712C53.8588 33.5537 53.9041 33.5522 53.9454 33.5669L61.3053 36.1787C61.3455 36.1931 61.3789 36.2218 61.3991 36.2593C61.4193 36.2969 61.4249 36.3406 61.4147 36.382L56.8715 55.1128C56.8636 55.1459 56.846 55.1759 56.821 55.199C56.796 55.2221 56.7647 55.2372 56.7311 55.2424C56.7222 55.245 56.7131 55.2468 56.7039 55.2478ZM53.0104 48.885C53.0398 48.8851 53.0687 48.8927 53.0943 48.9071C53.12 48.9215 53.1416 48.9422 53.157 48.9673L56.6341 54.6317L61.043 36.455L53.9818 33.9486L46.6235 50.9801L52.9537 48.8904C52.9722 48.8857 52.9913 48.8839 53.0104 48.885Z" fill="#1E293B"/>
<path d="M60.5566 36.9939L65.7377 55.3779L69.5391 49.4379L76.1999 51.7759L67.9143 34.3759L60.5566 36.9939Z" fill="white"/>
<path d="M65.7383 55.55C65.7298 55.5508 65.7212 55.5508 65.7127 55.55C65.6799 55.5453 65.6491 55.5311 65.6242 55.5092C65.5993 55.4873 65.5812 55.4586 65.5723 55.4267L60.3912 37.0427C60.3794 37.0006 60.3839 36.9556 60.404 36.9167C60.424 36.8779 60.4579 36.848 60.4991 36.8332L67.8575 34.2151C67.8977 34.2008 67.9417 34.2019 67.9812 34.2183C68.0206 34.2346 68.0525 34.265 68.0708 34.3036L76.3565 51.7044C76.3712 51.7351 76.3764 51.7695 76.3715 51.8032C76.3666 51.8369 76.3519 51.8683 76.3292 51.8937C76.3064 51.919 76.2767 51.937 76.2437 51.9454C76.2107 51.9539 76.176 51.9523 76.1439 51.9411L69.6111 49.6481L65.8865 55.4724C65.8705 55.4969 65.8485 55.5169 65.8225 55.5305C65.7966 55.5441 65.7676 55.5508 65.7383 55.55ZM60.7668 37.1024L65.7996 54.9611L69.3938 49.3447C69.4149 49.312 69.4463 49.2873 69.483 49.2747C69.5197 49.262 69.5597 49.2621 69.5964 49.2749L75.8669 51.4763L67.8264 34.5899L60.7668 37.1024Z" fill="#1E293B"/>
<path d="M75.6116 29.2475L73.5444 31.7562L74.4981 34.8654L71.6255 36.3878L71.3151 39.6244L68.0794 39.9355L66.5577 42.8089L63.4508 41.8545L60.9429 43.9232L58.435 41.8545L55.3273 42.8089L53.8056 39.9347L50.5699 39.6244L50.2595 36.3871L47.3869 34.8654L48.3406 31.7562L46.2734 29.2475L48.3406 26.7381L47.3869 23.6296L50.2595 22.1072L50.5699 18.8699L53.8056 18.5595L55.3273 15.6853L58.435 16.6398L60.9429 14.5718L63.4508 16.6398L66.5577 15.6853L68.0794 18.5595L71.3151 18.8699L71.6255 22.1072L74.4981 23.6296L73.5444 26.7381L75.6116 29.2475Z" fill="#2563EB"/>
<path d="M60.8538 39.7276C66.5903 39.7276 71.2407 35.0751 71.2407 29.336C71.2407 23.5969 66.5903 18.9444 60.8538 18.9444C55.1172 18.9444 50.4668 23.5969 50.4668 29.336C50.4668 35.0751 55.1172 39.7276 60.8538 39.7276Z" fill="white"/>
<path d="M60.8541 39.9004C55.0345 39.9004 50.2949 35.1609 50.2949 29.3366C50.2949 23.5122 55.0283 18.7719 60.8541 18.7719C66.68 18.7719 71.4133 23.5115 71.4133 29.3366C71.4133 35.1617 66.6769 39.9004 60.8541 39.9004ZM60.8541 19.1172C55.2215 19.1172 50.6394 23.7016 50.6394 29.3366C50.6394 34.9715 55.2176 39.5551 60.8541 39.5551C66.4907 39.5551 71.0657 34.9708 71.0657 29.3366C71.0657 23.7023 66.4876 19.1172 60.8541 19.1172Z" fill="#1E293B"/>
<path d="M60.3438 34.5927C60.2745 34.5931 60.2059 34.5796 60.1419 34.5529C60.0779 34.5262 60.0199 34.487 59.9714 34.4375L55.9822 30.2924C55.9339 30.2436 55.8957 30.1858 55.8699 30.1222C55.8442 30.0586 55.8313 29.9905 55.8321 29.9219C55.8329 29.8532 55.8473 29.7855 55.8745 29.7225C55.9017 29.6595 55.9412 29.6025 55.9907 29.5549C56.0401 29.5073 56.0985 29.4701 56.1625 29.4453C56.2265 29.4204 56.2948 29.4086 56.3634 29.4104C56.432 29.4123 56.4996 29.4277 56.5621 29.4559C56.6247 29.4841 56.6811 29.5244 56.7279 29.5746L60.2802 33.2596L65.3806 25.8391C65.419 25.7831 65.4682 25.7352 65.5252 25.6981C65.5821 25.6611 65.6459 25.6356 65.7127 25.6232C65.7795 25.6107 65.8482 25.6116 65.9147 25.6257C65.9812 25.6398 66.0442 25.6668 66.1003 25.7053C66.1563 25.7438 66.2042 25.7929 66.2413 25.8499C66.2784 25.9069 66.3038 25.9706 66.3163 26.0374C66.3287 26.1043 66.3278 26.1729 66.3137 26.2394C66.2997 26.3059 66.2726 26.3689 66.2341 26.425L60.7714 34.3708C60.7275 34.4346 60.6699 34.4877 60.6027 34.5262C60.5356 34.5648 60.4606 34.5877 60.3834 34.5935L60.3438 34.5927Z" fill="#1E293B"/>
<path d="M101.938 28.0065L100.044 28.2991L98.816 26.9675C98.5522 26.682 98.044 26.8333 97.9563 27.2244L97.5466 29.0432L95.7828 29.8417C95.4034 30.0132 95.3654 30.5191 95.7184 30.6952L97.3611 31.527L97.4977 33.3513C97.5272 33.7393 98.0122 33.9046 98.3179 33.6245L99.7425 32.3193L101.591 32.6483C101.989 32.7197 102.326 32.3131 102.162 31.9608L101.4 30.3228L102.409 28.7018C102.458 28.6268 102.484 28.5389 102.483 28.4491C102.483 28.3594 102.456 28.2718 102.405 28.1975C102.355 28.1231 102.284 28.0653 102.201 28.0314C102.118 27.9974 102.026 27.9887 101.938 28.0065Z" fill="#2563EB"/>
<path d="M109.374 23.9478L107.512 24.3171L106.258 23.0182C105.988 22.7388 105.491 22.9119 105.416 23.3107L105.069 25.1653L103.351 26.0398C102.982 26.2283 102.963 26.7381 103.315 26.9081L104.963 27.684L105.156 29.5238C105.197 29.9188 105.682 30.067 105.975 29.7675L107.341 28.3932L109.178 28.6555C109.572 28.7114 109.894 28.2877 109.721 27.9377L108.917 26.3082L109.859 24.6306C109.906 24.5545 109.929 24.4665 109.926 24.3773C109.923 24.2882 109.894 24.2019 109.842 24.1292C109.791 24.0565 109.719 24.0005 109.636 23.9683C109.552 23.936 109.462 23.9289 109.374 23.9478Z" fill="#2563EB"/>
<path d="M117.451 20.5628L115.606 20.8437L114.434 19.461C114.182 19.1638 113.686 19.3158 113.595 19.7178L113.172 21.5871L111.449 22.3933C111.078 22.5663 111.034 23.087 111.371 23.2748L112.954 24.1454L113.062 26.0255C113.085 26.4298 113.554 26.6005 113.855 26.3142L115.252 24.9827L117.042 25.3388C117.43 25.4164 117.76 24.9997 117.606 24.6358L116.889 22.9419L117.888 21.2821C118.109 20.9252 117.847 20.4976 117.451 20.5628Z" fill="#2563EB"/>
<path d="M125.241 17.2519L123.411 17.6143L122.181 16.2827C121.916 15.9964 121.428 16.1687 121.354 16.5745L121.01 18.4601L119.322 19.3377C118.959 19.5262 118.934 20.0484 119.285 20.2215L120.903 21.0285L121.09 22.9024C121.13 23.3051 121.605 23.4557 121.894 23.1577L123.238 21.768L125.041 22.0489C125.429 22.1094 125.745 21.6803 125.575 21.3226L124.787 19.6605L125.719 17.9596C125.915 17.5902 125.635 17.1743 125.241 17.2519Z" fill="#1E293B"/>
</svg>
